<svg xmlns="http://www.w3.org/2000/svg" width="240" height="336" fill="none">
  <path fill="#fff" d="M0 0h240v336H0z"/>
  <path fill="#2632A2" d="M16 13h209v311H16V13Z"/>
  <path fill="#FFFDF5" d="M225 324.5a104.5 104.5 0 0 0-209 0h209Zm0-312a104.5 104.5 0 0 1-209 0h209Z"/>
  <path fill="#2632A2" d="M203 324.5a82.5 82.5 0 1 0-165 0h165Zm0-312a82.5 82.5 0 1 1-165 0h165Z"/>
  <path fill="#FFFDF5" d="M180 324.5a59.5 59.5 0 0 0-119 0h119Zm0-312a59.5 59.5 0 0 1-119 0h119Z"/>
  <path fill="#2632A2" d="M157 324.5a36.5 36.5 0 0 0-73 0h73Zm0-312a36.5 36.5 0 0 1-73 0h73Z"/>
  <path fill="#FFFDF5" d="M137 324.5a16.5 16.5 0 1 0-33 0h33Zm0-312a16.5 16.5 0 1 1-33 0h33ZM54.8 166.4c-1.6-6.2 2-12.5 8.2-14.1l130.4-35a11.5 11.5 0 1 1 6 22.3l-130.5 35c-6.1 1.6-12.4-2-14-8.2Zm-21.2 48.1c-1.7-6.1 2-12.4 8-14l130.5-35a11.5 11.5 0 1 1 6 22.2l-130.5 35c-6 1.6-12.4-2-14-8.2Z"/>
</svg>
