
<svg xmlns="http://www.w3.org/2000/svg" width="17" height="17" fill="none">
  <path fill="#8E48FF" stroke="#000" stroke-linecap="round" stroke-linejoin="round" stroke-width=".7" d="m2.2 6.5.2.2A3.2 3.2 0 0 0 1.2 10a3.1 3.1 0 0 0 2.2 2.4 3.2 3.2 0 0 0 3.3-1 .3.3 0 0 1 .6.3v1.2s0 0 0 0l-.7 2.7c0 .2 0 .4.3.4h3.5c.3 0 .4-.2.4-.4l-.7-2.7s0 0 0 0v-1.2a.3.3 0 0 1 .6-.2A3.2 3.2 0 0 0 16 8a3.2 3.2 0 0 0-2.7-2c-.6 0-1.2.1-1.7.4a.3.3 0 0 1-.4-.5 3.1 3.1 0 0 0-2.5-5L2.2 6.5Zm0 0 .2.2a3.2 3.2 0 0 1 3.4-.2l.4-.1m-4 0h4m0 0V6m0 .4V6m0 0c-.4-.5-.6-1-.7-1.6M6.2 6l-.7-1.6m0 0c0-.6 0-1.2.3-1.7m-.3 1.7.3-1.7m0 0c.3-.6.7-1 1.2-1.3M5.8 2.7 7 1.4m0 0C7.5 1 8 .9 8.7.9L7 1.4Z"/>
</svg>
