<svg width="24" height="24" viewBox="0 0 24 24" fill="none" xmlns="http://www.w3.org/2000/svg">
	<path d="M15.8154 8.91392C15.6662 8.73346 15.6625 8.47349 15.8065 8.28883C16.3517 7.58979 16.6881 6.75365 16.7779 5.87539C16.8677 4.99713 16.7074 4.11135 16.3149 3.31847C15.9224 2.52555 15.3133 1.85698 14.5561 1.38913C13.7989 0.921303 12.9243 0.673059 12.0315 0.672964L15.8154 8.91392ZM15.8154 8.91392C15.9647 9.09439 16.2193 9.14682 16.4277 9.04001M15.8154 8.91392L16.4277 9.04001M16.4277 9.04001C17.2221 8.63285 18.1162 8.45499 19.008 8.527C19.8998 8.59902 20.7529 8.91795 21.47 9.44697C22.1871 9.97596 22.7394 10.6936 23.0644 11.5178C23.3895 12.3419 23.4744 13.2398 23.3097 14.1092C23.145 14.9787 22.7372 15.7853 22.1322 16.4369C21.5271 17.0886 20.7491 17.5592 19.8866 17.7944C19.024 18.0296 18.112 18.0198 17.2548 17.7661C16.3976 17.5125 15.6301 17.0254 15.0394 16.3609C14.9018 16.206 14.6827 16.1523 14.489 16.226M16.4277 9.04001L14.489 16.226M14.489 16.226C14.2953 16.2996 14.1672 16.4853 14.1672 16.6925M14.489 16.226L14.1672 16.6925M14.1672 16.6925V18.4626C14.1672 18.5038 14.1723 18.5448 14.1824 18.5847M14.1672 16.6925L14.1824 18.5847M14.1824 18.5847L15.1819 22.5487C15.2639 22.8736 15.0182 23.1889 14.6831 23.1889H9.37927C9.04418 23.1889 8.79855 22.8736 8.88048 22.5487L9.88001 18.5847C9.89004 18.5449 9.89513 18.504 9.89516 18.463M14.1824 18.5847L9.89516 18.463M9.89516 18.463L9.89648 16.6929C9.89664 16.4856 9.76867 16.2998 9.57496 16.2261M9.89516 18.463L9.57496 16.2261M9.57496 16.2261C9.38125 16.1523 9.16211 16.2059 9.02436 16.3608M9.57496 16.2261L9.02436 16.3608M9.02436 16.3608C8.4336 17.0251 7.66605 17.512 6.80889 17.7655C5.95171 18.0189 5.03985 18.0286 4.17738 17.7933C3.31493 17.558 2.53704 17.0875 1.93208 16.4358C1.32716 15.7841 0.919424 14.9775 0.754773 14.1082C0.590126 13.2388 0.675056 12.341 1.00004 11.517C1.32504 10.6929 1.87721 9.97527 2.59424 9.44627C3.3113 8.91725 4.16425 8.59827 5.05596 8.52615C5.94767 8.45404 6.8417 8.63175 7.63608 9.03874C7.84446 9.1455 8.09905 9.09306 8.24829 8.91264M9.02436 16.3608L8.24829 8.91264M8.24829 8.91264C8.39752 8.73222 8.40129 8.47232 8.25734 8.28765M8.24829 8.91264L8.25734 8.28765M8.25734 8.28765C7.7125 7.58868 7.37646 6.75277 7.28681 5.87479M8.25734 8.28765L7.28681 5.87479M7.28681 5.87479C7.19717 4.99683 7.35744 4.11137 7.74972 3.31874M7.28681 5.87479L7.74972 3.31874M7.74972 3.31874C8.14203 2.52606 8.75085 1.85765 9.50765 1.38977M7.74972 3.31874L9.50765 1.38977M9.50765 1.38977C10.2644 0.921908 11.1387 0.673451 12.0312 0.672964L9.50765 1.38977Z" fill="#4865FF" stroke="black" stroke-width="0.998271" stroke-linecap="round" stroke-linejoin="round" />
</svg>
