<svg xmlns="http://www.w3.org/2000/svg" width="24" height="25" fill="none">
  <path fill="#FF4848" d="M19.3 5.8c-2-2-4.4-3.4-6.9-4.6L12 1l-.4.2a27.6 27.6 0 0 0-6.9 4.6A12.4 12.4 0 0 0 1 14c0 1.9.7 3.8 2.4 4.8s4 .6 5.7-.5a15 15 0 0 0 3.1-2.7c-1 5-7.5 8.4-7.5 8.4h14.7s-6.2-3.4-7.2-8.4c.8 1 1.7 2 2.8 2.7 1.7 1 4 1.5 5.7.5 1.6-1 2.4-3 2.4-4.8 0-3-1.6-6-3.8-8.2Z"/>
  <path fill="#000" d="m19.3 5.8-.4.4.4-.4Zm-6.9-4.6-.2.5.2-.5ZM12 1l.2-.4-.2-.2-.2.2.2.4Zm-.4.2-.2-.4.2.4ZM1 14h.5H1Zm2.4 4.8.2-.5-.2.5Zm5.7-.5.2.4-.2-.4Zm3.1-2.7.4-.3a.5.5 0 0 0-.8 0l.4.3ZM4.7 24l-.3-.4a.5.5 0 0 0 .3.9V24Zm14.7 0v.5a.5.5 0 0 0 .2-1l-.2.5ZM15 18.3l-.3.4.3-.4Zm5.7.5.2.4-.2-.4ZM23 14h.5-.5Zm-3.5-8.5a24 24 0 0 0-7-4.7l-.4.9c2.5 1.2 4.8 2.6 6.7 4.5l.7-.7Zm-7-4.7-.2-.1-.2-.1-.4.8.2.1.2.2.4-1Zm-.8-.2h-.2l-.2.2.4.9.2-.2h.2l-.4-1Zm-.4.2c-2.5 1.2-5 2.6-7 4.7l.7.7c1.9-2 4.3-3.3 6.7-4.6l-.4-.8Zm-7 4.7A12 12 0 0 0 .5 14h1a11 11 0 0 1 3.6-7.8l-.7-.7ZM.5 14c0 2 .8 4.1 2.6 5.2l.5-.9c-1.4-.8-2.1-2.5-2.1-4.3h-1Zm2.6 5.2c2 1.2 4.5.7 6.2-.5l-.5-.8c-1.6 1-3.7 1.3-5.2.4l-.5.9Zm6.3-.5c1-.7 2.3-1.7 3.2-2.8l-.8-.6c-.8 1-2 1.8-3 2.6l.6.8Zm2.3-3.2a11 11 0 0 1-4 5.8 21.4 21.4 0 0 1-3.2 2.2 178.9 178.9 0 0 1 .4 1 5.3 5.3 0 0 0 .3-.2A19.6 19.6 0 0 0 8.4 22a12 12 0 0 0 4.3-6.4l-1-.2Zm-7 9h14.7v-1H4.7v1Zm14.7-.5.2-.4a11.2 11.2 0 0 1-1-.6l-2-1.7a11.3 11.3 0 0 1-4-5.8l-.9.2a12 12 0 0 0 4.1 6.4 21.6 21.6 0 0 0 3.3 2.3l.3-.4Zm-7.6-8.1c.8 1 1.8 2 2.9 2.8l.6-.8c-1-.7-2-1.6-2.7-2.6l-.8.6Zm3 2.8c1.7 1.2 4.1 1.7 6.1.5l-.5-.9c-1.5 1-3.6.6-5.2-.4l-.5.8Zm6.1.5c1.9-1 2.7-3.3 2.7-5.2h-1c0 1.7-.8 3.5-2.2 4.3l.5 1Zm2.7-5.2a12 12 0 0 0-4-8.5l-.7.7a11 11 0 0 1 3.7 7.8h1Z"/>
</svg>
