<svg width="24" height="25" viewBox="0 0 24 25" fill="none" xmlns="http://www.w3.org/2000/svg">
<g id="Vector">
<path d="M19.2528 5.81711C17.2852 3.84956 14.9106 2.42479 12.4003 1.20355C12.2646 1.13571 12.1289 1.06785 11.9932 1C11.8575 1.06785 11.7218 1.13571 11.5861 1.20355C9.14361 2.49264 6.70116 3.84956 4.73361 5.81711C2.56252 7.9882 0.934198 10.9056 1.00204 13.9587C1.00204 15.8584 1.74836 17.826 3.37667 18.7758C5.07284 19.7935 7.37964 19.3864 9.0758 18.3009C10.1613 17.5546 11.3826 16.6047 12.1967 15.587C11.179 20.6077 4.66698 24 4.66698 24L19.3884 24C19.3884 24 13.2144 20.6077 12.1967 15.587C13.0109 16.6047 13.8929 17.5546 14.9784 18.3009C16.6746 19.3864 18.9135 19.7935 20.6775 18.7758C22.3059 17.826 23.0522 15.7906 23.0522 13.9587C23.0522 10.9056 21.4917 7.9882 19.2528 5.81711Z" fill="#4865FF"/>
<path d="M19.2528 5.81711L18.8992 6.1707L18.9047 6.17606L19.2528 5.81711ZM12.4003 1.20355L12.1767 1.65079L12.1816 1.65317L12.4003 1.20355ZM11.9932 1L12.2168 0.552786L11.9932 0.440983L11.7696 0.552786L11.9932 1ZM11.5861 1.20355L11.3624 0.75623L11.3527 0.76136L11.5861 1.20355ZM1.00204 13.9587H1.50217L1.50192 13.9476L1.00204 13.9587ZM3.37667 18.7758L3.63394 18.347L3.62861 18.3439L3.37667 18.7758ZM9.0758 18.3009L9.34533 18.722L9.35227 18.7176L9.35907 18.7129L9.0758 18.3009ZM12.1967 15.587L12.5872 15.2747C12.4923 15.1561 12.3486 15.087 12.1967 15.087C12.0448 15.087 11.9012 15.1561 11.8063 15.2747L12.1967 15.587ZM4.66698 24L4.43598 23.5566C4.2317 23.663 4.12655 23.8952 4.18133 24.1189C4.23611 24.3426 4.43664 24.5 4.66698 24.5V24ZM19.3884 24V24.5C19.6167 24.5 19.816 24.3454 19.8728 24.1243C19.9295 23.9032 19.8293 23.6717 19.6292 23.5618L19.3884 24ZM14.9784 18.3009L14.6952 18.7129L14.7019 18.7176L14.7089 18.722L14.9784 18.3009ZM20.6775 18.7758L20.9274 19.2089L20.9295 19.2077L20.6775 18.7758ZM23.0522 13.9587H23.5522H23.0522ZM19.6063 5.46356C17.5828 3.44002 15.1524 1.98639 12.619 0.753935L12.1816 1.65317C14.6688 2.8632 16.9877 4.2591 18.8992 6.17066L19.6063 5.46356ZM12.6239 0.756338C12.5561 0.722423 12.4882 0.688504 12.4204 0.654576C12.3526 0.620651 12.2847 0.586718 12.2168 0.552786L11.7696 1.44721C11.8375 1.48113 11.9053 1.51505 11.9731 1.54898C12.041 1.5829 12.1088 1.61683 12.1767 1.65077L12.6239 0.756338ZM11.7696 0.552786C11.7018 0.586702 11.6339 0.620621 11.5661 0.654549C11.4982 0.688474 11.4303 0.722407 11.3625 0.756338L11.8097 1.65077C11.8775 1.61685 11.9454 1.58293 12.0132 1.549C12.0811 1.51508 12.149 1.48114 12.2168 1.44721L11.7696 0.552786ZM11.3527 0.76136C8.91264 2.04917 6.40717 3.43643 4.38005 5.46356L5.08716 6.17066C6.99514 4.26268 9.37459 2.9361 11.8195 1.64574L11.3527 0.76136ZM4.38005 5.46356C2.15109 7.69252 0.430259 10.7339 0.502168 13.9698L1.50192 13.9476C1.43814 11.0773 2.97394 8.28388 5.08716 6.17066L4.38005 5.46356ZM0.502045 13.9587C0.502045 15.9615 1.28768 18.1361 3.12474 19.2077L3.62861 18.3439C2.20903 17.5158 1.50204 15.7553 1.50204 13.9587H0.502045ZM3.11943 19.2046C5.03745 20.3554 7.55694 19.8666 9.34533 18.722L8.80627 17.8797C7.20233 18.9063 5.10823 19.2316 3.63392 18.3471L3.11943 19.2046ZM9.35907 18.7129C10.4538 17.9602 11.7253 16.9766 12.5872 15.8994L11.8063 15.2747C11.0398 16.2328 9.86886 17.1489 8.79254 17.8889L9.35907 18.7129ZM11.7067 15.4877C11.2322 17.8288 9.45788 19.8396 7.72846 21.2935C6.87218 22.0134 6.04558 22.5813 5.43298 22.969C5.12704 23.1627 4.87539 23.3108 4.7013 23.41C4.61428 23.4595 4.54671 23.4968 4.5015 23.5214C4.4789 23.5337 4.46189 23.5428 4.45085 23.5487C4.44533 23.5516 4.4413 23.5538 4.4388 23.5551C4.43756 23.5557 4.43669 23.5562 4.43622 23.5564C4.43599 23.5566 4.43585 23.5566 4.43581 23.5567C4.43579 23.5567 4.43583 23.5566 4.43582 23.5566C4.43589 23.5566 4.43598 23.5566 4.66698 24C4.89799 24.4434 4.89813 24.4434 4.89829 24.4433C4.89838 24.4432 4.89858 24.4431 4.89875 24.443C4.89911 24.4429 4.89956 24.4426 4.90012 24.4423C4.90122 24.4417 4.90272 24.441 4.90461 24.44C4.90838 24.438 4.91371 24.4352 4.92054 24.4315C4.9342 24.4243 4.95389 24.4137 4.97923 24.3999C5.02991 24.3724 5.10324 24.3319 5.19627 24.2789C5.38228 24.1729 5.64734 24.0168 5.9678 23.814C6.60801 23.4088 7.47303 22.8147 8.37198 22.059C10.153 20.5616 12.1436 18.3659 12.6868 15.6863L11.7067 15.4877ZM4.66698 24.5L19.3884 24.5V23.5L4.66698 23.5L4.66698 24.5ZM19.3884 24C19.6292 23.5618 19.6293 23.5618 19.6294 23.5619C19.6294 23.5619 19.6294 23.5619 19.6294 23.5619C19.6294 23.5619 19.6293 23.5618 19.6291 23.5617C19.6286 23.5615 19.6278 23.561 19.6267 23.5604C19.6243 23.5591 19.6206 23.557 19.6154 23.5541C19.605 23.5482 19.5889 23.5392 19.5676 23.5269C19.5249 23.5024 19.4609 23.4652 19.3786 23.4158C19.2138 23.3168 18.9753 23.1689 18.6852 22.9755C18.1043 22.5882 17.3197 22.0209 16.5052 21.3015C14.8621 19.8502 13.1631 17.8375 12.6868 15.4877L11.7067 15.6863C12.2481 18.3572 14.1449 20.551 15.8432 22.051C16.6995 22.8073 17.5219 23.4018 18.1305 23.8075C18.4351 24.0106 18.687 24.1669 18.8638 24.2731C18.9522 24.3262 19.0219 24.3668 19.0701 24.3944C19.0943 24.4083 19.113 24.4189 19.126 24.4262C19.1326 24.4298 19.1376 24.4327 19.1413 24.4347C19.1431 24.4357 19.1445 24.4365 19.1456 24.4371C19.1461 24.4374 19.1466 24.4376 19.1469 24.4378C19.1471 24.4379 19.1473 24.438 19.1474 24.438C19.1475 24.4381 19.1477 24.4382 19.3884 24ZM11.8063 15.8994C12.634 16.934 13.5515 17.9267 14.6952 18.7129L15.2617 17.8889C14.2342 17.1825 13.3878 16.2755 12.5872 15.2747L11.8063 15.8994ZM14.7089 18.722C16.5007 19.8688 18.9467 20.3516 20.9274 19.2089L20.4277 18.3427C18.8803 19.2354 16.8485 18.9041 15.2479 17.8797L14.7089 18.722ZM20.9295 19.2077C22.7686 18.1349 23.5522 15.8903 23.5522 13.9587L22.5522 13.9587C22.5522 15.6908 21.8431 17.517 20.4256 18.3439L20.9295 19.2077ZM23.5522 13.9587C23.5522 10.7357 21.9089 7.69623 19.6009 5.45816L18.9047 6.17606C21.0746 8.28017 22.5522 11.0755 22.5522 13.9587L23.5522 13.9587Z" fill="black"/>
</g>
</svg>
