<svg width="56" height="44" viewBox="0 0 56 44" fill="none" xmlns="http://www.w3.org/2000/svg">
<path d="M2.21243 9.61938L1 10.9958V26.4001L5.17614 26.8423L6.38271 25.4425L10.6321 25.5684V27.4046L11.6336 27.513L10.6321 28.6112V31.1502L29.9782 33.1592L30.7191 32.3041L30.7894 35.9209C30.9564 39.5699 34.9158 40.4631 36.424 38.0822V39.5465L39.3936 39.8452L40.5562 38.4746H40.9018V43.257L43.9592 43.5235L45.1687 42.1939V41.3387L45.7896 40.6037V39.8452" stroke="white" stroke-width="0.0937143"/>
<path d="M2.32373 23.5023V8.09189L6.48449 8.52921V14.5489L11.9923 15.1278V9.1081L16.153 9.54541V24.9558L11.9923 24.5185V18.4988L6.48449 17.9199V23.9396L2.32373 23.5023Z" fill="#120D57"/>
<path d="M37.6049 32.9026V28.0987L40.6573 28.4195V36.9598L37.7598 36.6552V35.0317L37.6713 35.0224C37.5725 35.3041 37.4339 35.5476 37.2557 35.7528C37.1014 35.9303 36.9174 36.0792 36.7036 36.1995C36.2428 36.455 35.6954 36.5494 35.0613 36.4828C34.4678 36.4204 33.948 36.2286 33.502 35.9075C33.0596 35.5867 32.7149 35.1724 32.4679 34.6645C32.2246 34.1571 32.1012 33.5918 32.0975 32.9687V27.5198L35.1498 27.8407V32.6445C35.1535 33.0675 35.2604 33.4105 35.4705 33.6735C35.6843 33.9369 35.9829 34.0888 36.3663 34.1291C36.6207 34.1558 36.84 34.1251 37.0243 34.037C37.1416 33.98 37.2416 33.9038 37.3245 33.8086C37.3745 33.7511 37.4182 33.6867 37.4557 33.6153C37.5589 33.4222 37.6086 33.1847 37.6049 32.9026Z" fill="#120D57"/>
<path d="M42.2097 40.3255V28.5827L45.24 28.9012V30.3913L45.3063 30.3982C45.3991 30.1654 45.5282 29.9533 45.6937 29.762C45.7255 29.7253 45.7585 29.6894 45.7929 29.6543C46.0067 29.4321 46.2721 29.2654 46.5892 29.1542C46.9062 29.0392 47.2748 29.0038 47.6951 29.048C48.2554 29.1069 48.7881 29.313 49.2931 29.6663C49.8019 30.0201 50.2147 30.5361 50.5318 31.2143C50.8525 31.893 51.0129 32.7476 51.0129 33.778C51.0129 34.764 50.8599 35.5653 50.5539 36.1818C50.4159 36.4634 50.2564 36.7084 50.0754 36.9167C49.8599 37.1648 49.6139 37.3609 49.3374 37.5051C48.8323 37.7708 48.2775 37.8719 47.673 37.8083C47.2748 37.7665 46.9191 37.6642 46.6058 37.5016C46.2961 37.3356 46.0307 37.1279 45.8095 36.8786C45.592 36.6259 45.4243 36.3488 45.3063 36.0473L45.2621 36.0426V40.6463L42.2097 40.3255ZM45.1957 33.1666C45.1957 33.5818 45.2492 33.947 45.3561 34.2622C45.4667 34.574 45.6215 34.8238 45.8206 35.0115C46.0233 35.1959 46.2648 35.3029 46.5449 35.3323C46.8251 35.3618 47.0629 35.3071 47.2583 35.1682C47.3253 35.1203 47.3869 35.0641 47.4431 34.9995C47.5537 34.8723 47.6432 34.7128 47.7117 34.5209C47.8186 34.2281 47.872 33.8705 47.872 33.4479C47.872 33.0254 47.8186 32.6584 47.7117 32.3469C47.6085 32.0321 47.4573 31.7845 47.2583 31.6042C47.0629 31.4206 46.8251 31.314 46.5449 31.2846C46.2648 31.2551 46.0233 31.3113 45.8206 31.4531C45.7501 31.5021 45.6853 31.5607 45.6259 31.6289C45.5175 31.7536 45.4275 31.9104 45.3561 32.0993C45.2492 32.3883 45.1957 32.7441 45.1957 33.1666Z" fill="#120D57"/>
<path d="M21.7384 25.699C20.8196 25.6025 20.0278 25.3427 19.3629 24.9198C18.7018 24.4936 18.192 23.9292 17.8334 23.2268C17.4786 22.521 17.3012 21.7024 17.3012 20.771C17.3012 19.8772 17.4805 19.1149 17.839 18.4841C17.9562 18.2779 18.0892 18.0892 18.2379 17.918C18.5442 17.5655 18.9173 17.2872 19.3573 17.0832C20.011 16.7801 20.7822 16.6752 21.6712 16.7687C22.3211 16.837 22.9093 17.0002 23.436 17.2584C23.9626 17.5165 24.4127 17.8586 24.7862 18.2847C25.1597 18.707 25.4473 19.203 25.649 19.7725C25.8507 20.342 25.9515 20.9704 25.9515 21.6577V22.3787L18.2648 21.5708V19.8583L23.1054 20.3671C23.1017 20.1188 23.0382 19.8943 22.9149 19.6936C22.7954 19.4895 22.6329 19.324 22.4275 19.1973C22.2258 19.0672 21.9961 18.9886 21.7384 18.9615C21.4882 18.9352 21.2585 18.9655 21.0493 19.0524C20.8721 19.1229 20.7245 19.226 20.6063 19.3619C20.5849 19.3865 20.5645 19.4121 20.5451 19.4388C20.4218 19.6137 20.3564 19.8265 20.349 20.0773V21.9251C20.349 22.203 20.4069 22.457 20.5227 22.687C20.6384 22.917 20.8046 23.1053 21.0213 23.252C21.2379 23.3987 21.4994 23.4882 21.8056 23.5203C22.0185 23.5427 22.2128 23.5331 22.3883 23.4915C22.5676 23.4502 22.7207 23.3799 22.8477 23.2806C22.8898 23.2464 22.9283 23.2094 22.963 23.1694C23.0329 23.089 23.0879 22.9969 23.1278 22.8932L25.9515 23.19C25.8544 23.7806 25.6247 24.2785 25.2624 24.6836C24.9001 25.0849 24.4202 25.3763 23.8226 25.5576C23.2287 25.7355 22.534 25.7827 21.7384 25.699Z" fill="#120D57"/>
<path d="M29.6114 26.504C29.0623 26.4463 28.5768 26.3051 28.1547 26.0805C27.7364 25.8525 27.4077 25.54 27.1687 25.1431C26.9296 24.7462 26.8101 24.2604 26.8101 23.6858C26.8101 23.2126 26.8904 22.8173 27.051 22.4999C27.1282 22.3456 27.2201 22.207 27.3267 22.0844C27.4418 21.9519 27.574 21.838 27.7233 21.7425C28.0109 21.5587 28.3452 21.4304 28.7262 21.3578C29.1109 21.2856 29.5255 21.2559 29.9699 21.2688C30.4518 21.2819 30.8383 21.2775 31.1297 21.2555C31.4247 21.2302 31.6376 21.1756 31.7684 21.0917C31.8043 21.0676 31.8353 21.0405 31.8614 21.0106C31.9301 20.9315 31.9645 20.8321 31.9645 20.7123V20.6898C31.9645 20.4644 31.8785 20.2826 31.7067 20.1444C31.5349 20.0062 31.3146 19.9229 31.0456 19.8947C30.7506 19.8636 30.5097 19.904 30.3229 20.0159C30.2649 20.0502 30.2142 20.0924 30.1708 20.1422C30.0774 20.2497 30.0179 20.3932 29.9924 20.5726L27.1463 20.2735C27.1836 19.7516 27.3498 19.2846 27.6449 18.8725C27.6858 18.8156 27.7293 18.7606 27.7753 18.7076C28.0654 18.3737 28.4571 18.1176 28.9503 17.9393C29.5217 17.729 30.2351 17.6688 31.0905 17.7587C31.7067 17.8234 32.2595 17.9548 32.7488 18.1527C33.2381 18.3468 33.6546 18.5915 33.9982 18.8868C34.3418 19.1783 34.6032 19.5062 34.7825 19.8705C34.9655 20.2315 35.0571 20.613 35.0571 21.0148V26.9412L32.1661 26.6373V25.4205L32.0989 25.4134C32.0145 25.5632 31.9211 25.6971 31.8186 25.8151C31.7126 25.9373 31.5968 26.0424 31.4714 26.1305C31.2287 26.3041 30.9504 26.4194 30.6366 26.4766C30.3266 26.5341 29.9849 26.5433 29.6114 26.504ZM30.6198 24.6496C30.8551 24.6743 31.0755 24.6486 31.2809 24.5726C31.4675 24.5051 31.6228 24.4 31.747 24.2573C31.762 24.2399 31.7766 24.2221 31.7908 24.2037C31.9215 24.0334 31.9869 23.8168 31.9869 23.5539V22.8328C31.9047 22.858 31.8169 22.8807 31.7235 22.9009C31.6339 22.9215 31.5368 22.9395 31.4322 22.9548C31.3314 22.9705 31.223 22.9835 31.1073 22.9939C30.9952 23.0046 30.8776 23.0129 30.7543 23.0187C30.5153 23.0312 30.3192 23.0725 30.166 23.1428C30.05 23.1948 29.9566 23.2615 29.8856 23.3431C29.8652 23.3666 29.8466 23.3914 29.8299 23.4173C29.7589 23.53 29.7234 23.6615 29.7234 23.8117C29.7234 24.0521 29.8075 24.245 29.9755 24.3903C30.1436 24.5357 30.3584 24.6221 30.6198 24.6496Z" fill="#120D57"/>
<path d="M39.6497 27.5365C39.0372 27.4722 38.4732 27.2514 37.9578 26.8742C37.4461 26.4975 37.0352 25.9642 36.7252 25.2744C36.4189 24.5849 36.2658 23.7407 36.2658 22.7417C36.2658 21.6977 36.4264 20.8658 36.7476 20.2461C36.8842 19.9859 37.0372 19.7582 37.2067 19.5631C37.4406 19.2939 37.7059 19.0867 38.0026 18.9415C38.518 18.6914 39.0596 18.5963 39.6273 18.6559C40.0531 18.7007 40.4266 18.8151 40.7478 18.999C41.0691 19.1793 41.338 19.4047 41.5546 19.6753C41.7712 19.9422 41.9356 20.228 42.0476 20.5327L42.0925 20.5374V16.1434L45.1851 16.4684V28.0057L42.1149 27.683V26.2633L42.0476 26.2563C41.9588 26.4646 41.8412 26.6533 41.6946 26.8224C41.6439 26.8809 41.5898 26.937 41.5322 26.9908C41.3118 27.1967 41.0429 27.3506 40.7254 27.4524C40.4117 27.5509 40.0531 27.5789 39.6497 27.5365ZM40.7927 25.2681C41.0765 25.2979 41.3193 25.2408 41.521 25.0968C41.5919 25.0459 41.6571 24.9863 41.7164 24.9181C41.829 24.7887 41.9207 24.6281 41.9916 24.4364C42.1037 24.1402 42.1597 23.7818 42.1597 23.3612C42.1597 22.9331 42.1037 22.561 41.9916 22.245C41.8833 21.9257 41.7264 21.6745 41.521 21.4914C41.3193 21.305 41.0765 21.1968 40.7927 21.167C40.5088 21.1371 40.266 21.1942 40.0643 21.3383C39.9979 21.3855 39.9365 21.4415 39.8802 21.5063C39.7686 21.6345 39.6769 21.7972 39.6049 21.9942C39.5003 22.2874 39.4481 22.6481 39.4481 23.0762C39.4481 23.5044 39.5003 23.8779 39.6049 24.1968C39.7132 24.5124 39.8664 24.7633 40.0643 24.9493C40.266 25.132 40.5088 25.2383 40.7927 25.2681Z" fill="#120D57"/>
<path d="M54.5693 23.1558L51.7232 22.8566C51.7083 22.6786 51.6467 22.52 51.5383 22.3809C51.43 22.2418 51.29 22.1295 51.1182 22.0438C50.9501 21.9548 50.7633 21.8995 50.5579 21.8779C50.2927 21.85 50.0649 21.8749 49.8744 21.9525C49.7919 21.9861 49.7275 22.0294 49.6815 22.0824C49.6212 22.1517 49.5921 22.2375 49.5943 22.3399C49.5905 22.4672 49.6447 22.5912 49.7567 22.7119C49.8725 22.833 50.0948 22.9409 50.4234 23.0355L52.1714 23.5347C53.0529 23.7888 53.7084 24.13 54.1379 24.5582C54.5712 24.9831 54.7897 25.5149 54.7934 26.1538C54.7897 26.7693 54.6067 27.2852 54.2444 27.7016C53.8858 28.1146 53.3947 28.4122 52.7709 28.5945C52.1509 28.7735 51.4431 28.8211 50.6475 28.7375C49.3328 28.5993 48.3038 28.2208 47.5605 27.6019C46.821 26.9833 46.4083 26.2264 46.3224 25.331L49.3926 25.6537C49.4337 25.9322 49.5681 26.1585 49.796 26.3327C50.0275 26.5035 50.3189 26.6073 50.6699 26.6442C50.9538 26.6741 51.1872 26.6498 51.3703 26.5714C51.452 26.5372 51.5162 26.4933 51.5629 26.4396C51.6229 26.3707 51.6539 26.2857 51.656 26.1845C51.6523 26.0189 51.5701 25.8788 51.4095 25.7643C51.2526 25.6502 51.0061 25.5454 50.6699 25.45L49.1461 25.0194C48.2683 24.7732 47.611 24.4111 47.174 23.9333C46.737 23.4555 46.5203 22.8769 46.5241 22.1975C46.5203 21.5962 46.6772 21.1038 46.9947 20.7203C47.3159 20.3335 47.7734 20.0623 48.3673 19.9069C48.9649 19.7481 49.6727 19.7117 50.4907 19.7977C51.7344 19.9284 52.7149 20.2906 53.432 20.8843C54.1529 21.4783 54.532 22.2355 54.5693 23.1558Z" fill="#120D57"/>
<path d="M17.0286 12.84L41.2609 15.3869V17.9231L17.0286 15.3761V12.84Z" fill="#120D57"/>
<path d="M11.9725 25.7156L31.3233 27.7494V30.2856L11.9725 28.2517V25.7156Z" fill="#120D57"/>
<path d="M45.1695 8.11316V15.7274L42.0705 15.4017V7.78744L45.1695 8.11316Z" fill="#120D57"/>
<path d="M43.6174 6.21631L37.6763 11.5657L39.2962 13.3647L43.6174 9.47389L47.9386 14.2731L49.5584 12.8145L43.6174 6.21631Z" fill="#120D57"/>
<path d="M44.824 4.82825L50.765 11.4265L49.5584 12.8145L43.6174 6.21627L44.824 4.82825Z" fill="#120D57"/>
<path d="M46.3761 6.72512L43.2771 6.39941L42.0706 7.78743L45.1695 8.11314L46.3761 6.72512Z" fill="#120D57"/>
<path d="M50.7651 11.4265L49.1452 12.885L47.9386 14.2731L49.5585 12.8145L50.7651 11.4265Z" fill="#120D57"/>
<path d="M49.1451 12.8851L44.824 8.08594L43.6174 9.47396L47.9386 14.2731L49.1451 12.8851Z" fill="#120D57"/>
<path d="M46.3761 14.3394V6.7251L45.1695 8.11312V15.7274L46.3761 14.3394Z" fill="#120D57"/>
<path d="M38.8829 10.1776L44.824 4.82825L43.6174 6.21627L37.6763 11.5656L38.8829 10.1776Z" fill="#120D57"/>
<path d="M43.2771 6.39941V14.0137L42.0706 15.4017V7.78743L43.2771 6.39941Z" fill="#120D57"/>
<path d="M55.7759 21.7677C55.7386 20.8474 55.3595 20.0903 54.6386 19.4962L53.432 20.8842C54.1529 21.4783 54.532 22.2354 54.5693 23.1557L55.7759 21.7677Z" fill="#120D57"/>
<path d="M54.6386 19.4962C53.9215 18.9026 52.941 18.5404 51.6972 18.4097L50.4907 19.7977C51.7344 19.9284 52.7149 20.2906 53.432 20.8842L54.6386 19.4962Z" fill="#120D57"/>
<path d="M44.824 8.08594L40.5028 11.9768L39.2962 13.3648L43.6174 9.47396L44.824 8.08594Z" fill="#120D57"/>
<path d="M52.9298 21.4686L55.7759 21.7678L54.5693 23.1558L51.7232 22.8566L52.9298 21.4686Z" fill="#120D57"/>
<path d="M51.6973 18.4097C50.8793 18.3237 50.1715 18.3601 49.5739 18.5189L48.3673 19.9069C48.9649 19.7481 49.6727 19.7117 50.4907 19.7977L51.6973 18.4097Z" fill="#120D57"/>
<path d="M52.3248 20.6558C52.4966 20.7414 52.6366 20.8538 52.7449 20.9929L51.5384 22.3809C51.43 22.2418 51.29 22.1294 51.1182 22.0438L52.3248 20.6558Z" fill="#120D57"/>
<path d="M43.2771 14.0137L46.3761 14.3394L45.1695 15.7274L42.0706 15.4017L43.2771 14.0137Z" fill="#120D57"/>
<path d="M52.7449 20.9929C52.8532 21.132 52.9149 21.2906 52.9298 21.4687L51.7232 22.8567C51.7083 22.6786 51.6466 22.52 51.5383 22.3809L52.7449 20.9929Z" fill="#120D57"/>
<path d="M51.7645 20.4899C51.9699 20.5115 52.1567 20.5668 52.3248 20.6558L51.1182 22.0438C50.9501 21.9548 50.7633 21.8995 50.5579 21.8779L51.7645 20.4899Z" fill="#120D57"/>
<path d="M55.3445 23.1703C54.915 22.742 54.2595 22.4009 53.378 22.1467L52.1714 23.5347C53.0529 23.7889 53.7084 24.1301 54.1379 24.5583L55.3445 23.1703Z" fill="#120D57"/>
<path d="M56 24.7657C55.9963 24.1269 55.7778 23.595 55.3445 23.1702L54.1379 24.5582C54.5712 24.983 54.7897 25.5149 54.7934 26.1537L56 24.7657Z" fill="#120D57"/>
<path d="M51.081 20.5644C51.2715 20.4868 51.4993 20.4619 51.7645 20.4898L50.5579 21.8778C50.2927 21.85 50.0649 21.8748 49.8744 21.9525L51.081 20.5644Z" fill="#120D57"/>
<path d="M46.3917 15.0804L43.2991 14.7554L42.0925 16.1434L45.1851 16.4684L46.3917 15.0804Z" fill="#120D57"/>
<path d="M53.378 22.1467L51.63 21.6475L50.4235 23.0355L52.1715 23.5347L53.378 22.1467Z" fill="#120D57"/>
<path d="M50.888 20.6944C50.9341 20.6414 50.9984 20.5981 51.081 20.5645L49.8744 21.9525C49.7918 21.9861 49.7275 22.0294 49.6815 22.0824L50.888 20.6944Z" fill="#120D57"/>
<path d="M48.2013 19.3323C48.5225 18.9455 48.98 18.6743 49.5739 18.5189L48.3673 19.9069C47.8113 20.0525 47.3747 20.2994 47.0577 20.6479L46.9947 20.7204C47.0151 20.6957 47.0361 20.6716 47.0577 20.6479L48.2013 19.3323Z" fill="#120D57"/>
<path d="M40.5028 11.9767L38.8829 10.1776L37.6763 11.5656L39.2962 13.3647L40.5028 11.9767Z" fill="#120D57"/>
<path d="M50.8009 20.952C50.7988 20.8496 50.8278 20.7639 50.888 20.6946L49.6815 22.0825C49.6212 22.1518 49.5922 22.2376 49.5943 22.34L50.8009 20.952Z" fill="#120D57"/>
<path d="M51.63 21.6476C51.3013 21.5529 51.0791 21.4451 50.9633 21.324L49.7567 22.712C49.8725 22.8331 50.0947 22.9409 50.4234 23.0356L51.63 21.6476Z" fill="#120D57"/>
<path d="M50.9633 21.3239C50.8512 21.2032 50.7971 21.0792 50.8008 20.9519L49.5942 22.3399C49.5905 22.4672 49.6447 22.5912 49.7567 22.7119L50.9633 21.3239Z" fill="#120D57"/>
<path d="M55.451 26.3136C55.8133 25.8972 55.9963 25.3813 56 24.7657L54.7934 26.1538C54.7897 26.7684 54.6072 27.2838 54.2459 27.6998L55.451 26.3136Z" fill="#120D57"/>
<path d="M42.4675 16.535V13.9989L41.2609 15.3869V17.9231L42.4675 16.535Z" fill="#120D57"/>
<path d="M48.2013 19.3323C47.8838 19.7158 47.7269 20.2082 47.7306 20.8095L46.5241 22.1975C46.5203 21.5962 46.6772 21.1038 46.9947 20.7203L48.2013 19.3323Z" fill="#120D57"/>
<path d="M52.6161 24.3763C52.7767 24.4909 52.8589 24.631 52.8626 24.7966L51.656 26.1846C51.6523 26.019 51.5701 25.8789 51.4095 25.7644L52.6161 24.3763Z" fill="#120D57"/>
<path d="M51.8765 24.0619C52.2127 24.1573 52.4592 24.2621 52.616 24.3762L51.4095 25.7642C51.2526 25.6501 51.0061 25.5453 50.6699 25.4499L51.8765 24.0619Z" fill="#120D57"/>
<path d="M52.8626 24.7965C52.8605 24.8976 52.8295 24.9827 52.7695 25.0516L51.563 26.4395C51.6229 26.3706 51.6539 26.2856 51.656 26.1845L52.8626 24.7965Z" fill="#120D57"/>
<path d="M53.9775 27.2065C54.6001 27.0246 55.0906 26.7277 55.449 26.3159L54.2444 27.7016C53.8858 28.1146 53.3947 28.4123 52.7709 28.5946L53.9775 27.2065Z" fill="#120D57"/>
<path d="M43.2991 14.7554V19.1494L42.0925 20.5374V16.1434L43.2991 14.7554Z" fill="#120D57"/>
<path d="M52.7695 25.0516C52.7229 25.1053 52.6586 25.1492 52.5769 25.1834L51.3703 26.5714C51.4521 26.5372 51.5163 26.4933 51.563 26.4397L52.7695 25.0516Z" fill="#120D57"/>
<path d="M50.3526 23.6313L51.8765 24.0619L50.6699 25.4499L49.1461 25.0194L50.3526 23.6313Z" fill="#120D57"/>
<path d="M52.5768 25.1833C52.3938 25.2618 52.1604 25.286 51.8765 25.2562L50.6699 26.6442C50.9538 26.6741 51.1872 26.6498 51.3702 26.5714L52.5768 25.1833Z" fill="#120D57"/>
<path d="M47.7307 20.8094C47.7269 21.4888 47.9436 22.0674 48.3806 22.5452L47.174 23.9333C46.737 23.4554 46.5204 22.8768 46.5241 22.1975L47.7307 20.8094Z" fill="#120D57"/>
<path d="M48.3805 22.5453C48.8175 23.0231 49.4749 23.3851 50.3526 23.6314L49.146 25.0194C48.2683 24.7732 47.6109 24.4111 47.174 23.9333L48.3805 22.5453Z" fill="#120D57"/>
<path d="M51.8765 25.2563C51.5254 25.2194 51.2341 25.1155 51.0025 24.9447L49.796 26.3327C50.0275 26.5035 50.3189 26.6074 50.67 26.6443L51.8765 25.2563Z" fill="#120D57"/>
<path d="M51.0025 24.9447C50.7747 24.7705 50.6402 24.5442 50.5992 24.2657L49.3926 25.6538C49.4337 25.9322 49.5681 26.1586 49.796 26.3327L51.0025 24.9447Z" fill="#120D57"/>
<path d="M46.3916 26.6177V15.0804L45.1851 16.4685V28.0057L46.3916 26.6177Z" fill="#120D57"/>
<path d="M42.7612 18.2874C42.5446 18.0167 42.2757 17.7913 41.9545 17.6111L40.7479 18.9991C41.0691 19.1793 41.338 19.4048 41.5546 19.6754L42.7612 18.2874Z" fill="#120D57"/>
<path d="M51.8541 27.3495C52.6497 27.4332 53.3575 27.3855 53.9775 27.2065L52.7709 28.5946C52.1509 28.7735 51.4431 28.8212 50.6475 28.7376L51.8541 27.3495Z" fill="#120D57"/>
<path d="M43.2542 19.1447C43.1422 18.84 42.9778 18.5542 42.7612 18.2874L41.5546 19.6754C41.7713 19.9423 41.9356 20.2281 42.0476 20.5328L43.2542 19.1447Z" fill="#120D57"/>
<path d="M50.5992 24.2657L47.529 23.943L46.3224 25.331L49.3926 25.6537L50.5992 24.2657Z" fill="#120D57"/>
<path d="M41.9544 17.6111C41.6332 17.4271 41.2597 17.3127 40.8339 17.2679L39.6273 18.656C40.0531 18.7007 40.4266 18.8151 40.7478 18.9991L41.9544 17.6111Z" fill="#120D57"/>
<path d="M43.299 19.1495L43.2542 19.1448L42.0476 20.5328L42.0924 20.5375L43.299 19.1495Z" fill="#120D57"/>
<path d="M40.8339 17.268C40.2662 17.2083 39.7246 17.3035 39.2092 17.5535L38.0026 18.9415C38.5181 18.6915 39.0596 18.5963 39.6274 18.656L40.8339 17.268Z" fill="#120D57"/>
<path d="M48.7671 26.2139C49.5104 26.8328 50.5394 27.2114 51.8541 27.3495L50.6476 28.7376C49.3328 28.5994 48.3038 28.2208 47.5605 27.6019L48.7671 26.2139Z" fill="#120D57"/>
<path d="M41.9992 19.7789C42.2831 19.8088 42.5259 19.9169 42.7276 20.1034L41.521 21.4914C41.3193 21.3049 41.0765 21.1968 40.7927 21.1669L41.9992 19.7789Z" fill="#120D57"/>
<path d="M42.7276 20.1034C42.933 20.2865 43.0899 20.5377 43.1982 20.857L41.9916 22.2451C41.8833 21.9257 41.7264 21.6745 41.521 21.4914L42.7276 20.1034Z" fill="#120D57"/>
<path d="M47.529 23.943C47.6149 24.8383 48.0276 25.5953 48.7671 26.2138L47.5605 27.6018C46.821 26.9833 46.4083 26.2264 46.3224 25.331L47.529 23.943Z" fill="#120D57"/>
<path d="M41.2709 19.9502C41.4726 19.8062 41.7154 19.7491 41.9992 19.7789L40.7927 21.1669C40.5088 21.1371 40.266 21.1942 40.0643 21.3383L41.2709 19.9502Z" fill="#120D57"/>
<path d="M43.1982 20.8571C43.3103 21.173 43.3663 21.5451 43.3663 21.9732L42.1597 23.3613C42.1597 22.9331 42.1037 22.5611 41.9916 22.2451L43.1982 20.8571Z" fill="#120D57"/>
<path d="M39.2092 17.5535C38.9125 17.6987 38.6472 17.9059 38.4133 18.1751L37.2077 19.562C37.4414 19.2933 37.7064 19.0865 38.0026 18.9415L39.2092 17.5535Z" fill="#120D57"/>
<path d="M41.0868 20.1183C41.1431 20.0535 41.2045 19.9975 41.2709 19.9503L40.0644 21.3383C39.9979 21.3856 39.9365 21.4416 39.8802 21.5063L41.0868 20.1183Z" fill="#120D57"/>
<path d="M51.7384 29.8263C51.4213 29.148 51.0085 28.632 50.4997 28.2783L49.2932 29.6663C49.8019 30.0201 50.2148 30.5361 50.5318 31.2143L51.7384 29.8263Z" fill="#120D57"/>
<path d="M50.4998 28.2784C49.9947 27.925 49.462 27.7189 48.9017 27.66L47.6951 29.0481C48.2555 29.1069 48.7881 29.3131 49.2932 29.6664L50.4998 28.2784Z" fill="#120D57"/>
<path d="M40.8115 20.6062C40.8834 20.4094 40.975 20.2469 41.0863 20.1188L39.8802 21.5063C39.7686 21.6345 39.6769 21.7972 39.6049 21.9942L40.8115 20.6062Z" fill="#120D57"/>
<path d="M43.3663 21.9733C43.3663 22.3939 43.3103 22.7523 43.1982 23.0485L41.9916 24.4365C42.1037 24.1403 42.1597 23.7819 42.1597 23.3613L43.3663 21.9733Z" fill="#120D57"/>
<path d="M38.4133 18.175C38.2438 18.3701 38.0907 18.5978 37.9542 18.858L36.7476 20.2461C36.8842 19.9858 37.0372 19.7582 37.2067 19.5631L38.4133 18.175Z" fill="#120D57"/>
<path d="M48.9017 27.66C48.4814 27.6158 48.1128 27.6512 47.7958 27.7662L46.5892 29.1542C46.9062 29.0392 47.2748 29.0038 47.6951 29.048L48.9017 27.66Z" fill="#120D57"/>
<path d="M40.6546 21.6882C40.6546 21.2601 40.7069 20.8994 40.8115 20.6062L39.6049 21.9942C39.5003 22.2874 39.4481 22.6481 39.4481 23.0762L40.6546 21.6882Z" fill="#120D57"/>
<path d="M43.1982 23.0485C43.1273 23.2402 43.0355 23.4007 42.923 23.5301L41.7169 24.9176C41.8292 24.7883 41.9208 24.6279 41.9916 24.4365L43.1982 23.0485Z" fill="#120D57"/>
<path d="M52.2195 32.39C52.2195 31.3595 52.0591 30.505 51.7384 29.8263L50.5318 31.2143C50.8525 31.893 51.0129 32.7476 51.0129 33.778L52.2195 32.39Z" fill="#120D57"/>
<path d="M42.4675 13.9989L18.2352 11.452L17.0286 12.84L41.2609 15.387L42.4675 13.9989Z" fill="#120D57"/>
<path d="M42.923 23.53C42.8637 23.5983 42.7985 23.6578 42.7276 23.7088L41.521 25.0968C41.5919 25.0459 41.6571 24.9863 41.7164 24.918L42.923 23.53Z" fill="#120D57"/>
<path d="M47.7958 27.7662C47.4787 27.8775 47.2133 28.0442 46.9995 28.2663L45.7929 29.6544C46.0067 29.4322 46.2721 29.2655 46.5892 29.1543L47.7958 27.7662Z" fill="#120D57"/>
<path d="M40.8115 22.8089C40.7069 22.4899 40.6546 22.1164 40.6546 21.6882L39.4481 23.0763C39.4481 23.5044 39.5003 23.8779 39.6049 24.1969L40.8115 22.8089Z" fill="#120D57"/>
<path d="M42.7276 23.7087C42.5259 23.8528 42.2831 23.9099 41.9992 23.8801L40.7927 25.2681C41.0765 25.2979 41.3193 25.2408 41.521 25.0968L42.7276 23.7087Z" fill="#120D57"/>
<path d="M35.9891 18.4826C35.8098 18.1182 35.5484 17.7903 35.2048 17.4988L33.9982 18.8868C34.3418 19.1783 34.6032 19.5062 34.7825 19.8706L35.9891 18.4826Z" fill="#120D57"/>
<path d="M35.2048 17.4987C34.8612 17.2035 34.4447 16.9588 33.9554 16.7646L32.7488 18.1527C33.2381 18.3468 33.6546 18.5915 33.9982 18.8868L35.2048 17.4987Z" fill="#120D57"/>
<path d="M43.2542 24.8683L43.3214 24.8754L42.1148 26.2634L42.0476 26.2563L43.2542 24.8683Z" fill="#120D57"/>
<path d="M37.9542 18.858C37.633 19.4777 37.4724 20.3096 37.4724 21.3537L36.2658 22.7417C36.2658 21.6977 36.4264 20.8658 36.7476 20.2461L37.9542 18.858Z" fill="#120D57"/>
<path d="M43.3215 26.2949L46.3917 26.6176L45.1851 28.0056L42.1149 27.6829L43.3215 26.2949Z" fill="#120D57"/>
<path d="M46.9003 28.374C46.932 28.3373 46.9651 28.3014 46.9995 28.2662L45.7929 29.6543C45.7612 29.6867 45.7305 29.7198 45.7011 29.7535L45.6937 29.762C45.6962 29.7592 45.6986 29.7563 45.7011 29.7535L46.9003 28.374Z" fill="#120D57"/>
<path d="M41.2709 23.5613C41.073 23.3752 40.9198 23.1244 40.8115 22.8088L39.6049 24.1969C39.7132 24.5124 39.8664 24.7633 40.0643 24.9493L41.2709 23.5613Z" fill="#120D57"/>
<path d="M41.9992 23.8801C41.7154 23.8502 41.4726 23.744 41.2709 23.5613L40.0643 24.9493C40.266 25.132 40.5088 25.2383 40.7927 25.2681L41.9992 23.8801Z" fill="#120D57"/>
<path d="M36.2636 19.6268C36.2636 19.225 36.1721 18.8435 35.9891 18.4825L34.7825 19.8706C34.9655 20.2316 35.0571 20.613 35.0571 21.0148L36.2636 19.6268Z" fill="#120D57"/>
<path d="M42.9012 25.4344C43.0478 25.2653 43.1654 25.0766 43.2542 24.8683L42.0477 26.2563C41.9589 26.4646 41.8412 26.6533 41.6946 26.8224L42.9012 25.4344Z" fill="#120D57"/>
<path d="M33.9554 16.7647C33.4661 16.5668 32.9133 16.4355 32.297 16.3707L31.0905 17.7587C31.7067 17.8235 32.2595 17.9549 32.7488 18.1527L33.9554 16.7647Z" fill="#120D57"/>
<path d="M46.4466 29.0033V27.5132L45.24 28.9012V30.3913L46.4466 29.0033Z" fill="#120D57"/>
<path d="M43.3215 24.8754V26.295L42.1149 27.683V26.2634L43.3215 24.8754Z" fill="#120D57"/>
<path d="M46.9003 28.374C46.7349 28.5653 46.6057 28.7774 46.5129 29.0102L45.3063 30.3983C45.3991 30.1654 45.5283 29.9533 45.6938 29.762L46.9003 28.374Z" fill="#120D57"/>
<path d="M47.7516 29.8966C48.0317 29.9261 48.2695 30.0326 48.4649 30.2162L47.2583 31.6042C47.0629 31.4206 46.8251 31.3141 46.545 31.2846L47.7516 29.8966Z" fill="#120D57"/>
<path d="M48.4649 30.2162C48.664 30.3965 48.8151 30.6441 48.9183 30.9589L47.7117 32.3469C47.6085 32.0321 47.4574 31.7845 47.2583 31.6042L48.4649 30.2162Z" fill="#120D57"/>
<path d="M46.4465 27.5132L43.4163 27.1947L42.2097 28.5827L45.2399 28.9012L46.4465 27.5132Z" fill="#120D57"/>
<path d="M42.9012 25.4343C42.8998 25.4359 42.8984 25.4375 42.897 25.4392L41.6946 26.8223C41.644 26.8808 41.5898 26.937 41.5322 26.9907L42.7388 25.6027C42.7948 25.5504 42.8476 25.4959 42.897 25.4392L42.9012 25.4343Z" fill="#120D57"/>
<path d="M51.7605 34.7938C52.0665 34.1773 52.2194 33.376 52.2194 32.39L51.0129 33.778C51.0129 34.764 50.8599 35.5653 50.5539 36.1818L51.7605 34.7938Z" fill="#120D57"/>
<path d="M46.5129 29.0103L46.4466 29.0033L45.24 30.3913L45.3063 30.3983L46.5129 29.0103Z" fill="#120D57"/>
<path d="M47.0271 30.0651C47.2299 29.9234 47.4714 29.8672 47.7515 29.8966L46.5449 31.2847C46.2648 31.2552 46.0233 31.3114 45.8206 31.4532L47.0271 30.0651Z" fill="#120D57"/>
<path d="M18.2352 13.9882L42.4675 16.5351L41.2609 17.9231L17.0286 15.3762L18.2352 13.9882Z" fill="#120D57"/>
<path d="M48.9183 30.9589C49.0252 31.2703 49.0786 31.6374 49.0786 32.0599L47.872 33.4479C47.872 33.0254 47.8186 32.6584 47.7117 32.3469L48.9183 30.9589Z" fill="#120D57"/>
<path d="M41.932 26.0644C42.2495 25.9626 42.5184 25.8087 42.7388 25.6028L41.5322 26.9908C41.3118 27.1967 41.0429 27.3506 40.7254 27.4524L41.932 26.0644Z" fill="#120D57"/>
<path d="M32.297 16.3707C31.4417 16.2808 30.7283 16.341 30.1568 16.5514L28.9503 17.9394C29.5217 17.729 30.2351 17.6688 31.0904 17.7587L32.297 16.3707Z" fill="#120D57"/>
<path d="M46.8325 30.2409C46.8918 30.1727 46.9567 30.114 47.0271 30.0651L45.8206 31.4531C45.7501 31.5021 45.6853 31.5607 45.6259 31.6289L46.8325 30.2409Z" fill="#120D57"/>
<path d="M37.4724 21.3538C37.4724 22.3528 37.6255 23.197 37.9318 23.8864L36.7252 25.2744C36.4189 24.585 36.2658 23.7408 36.2658 22.7418L37.4724 21.3538Z" fill="#120D57"/>
<path d="M46.5627 30.7113C46.634 30.5227 46.7239 30.366 46.8321 30.2414L45.6259 31.629C45.5175 31.7536 45.4276 31.9104 45.3561 32.0994L46.5627 30.7113Z" fill="#120D57"/>
<path d="M49.0786 32.0599C49.0786 32.4825 49.0252 32.8401 48.9183 33.1329L47.7117 34.5209C47.8186 34.2282 47.872 33.8705 47.872 33.448L49.0786 32.0599Z" fill="#120D57"/>
<path d="M40.8564 26.1486C41.2598 26.191 41.6183 26.1629 41.9321 26.0645L40.7255 27.4525C40.4117 27.5509 40.0532 27.579 39.6498 27.5366L40.8564 26.1486Z" fill="#120D57"/>
<path d="M32.9133 18.7563C33.0851 18.8946 33.171 19.0764 33.171 19.3017L31.9644 20.6897C31.9644 20.4644 31.8785 20.2826 31.7067 20.1444L32.9133 18.7563Z" fill="#120D57"/>
<path d="M32.2522 18.5066C32.5212 18.5349 32.7415 18.6181 32.9133 18.7563L31.7068 20.1444C31.5349 20.0061 31.3146 19.9229 31.0457 19.8946L32.2522 18.5066Z" fill="#120D57"/>
<path d="M51.282 35.5288C51.463 35.3204 51.6225 35.0754 51.7605 34.7938L50.5539 36.1818C50.4159 36.4635 50.2564 36.7084 50.0754 36.9168L51.282 35.5288Z" fill="#120D57"/>
<path d="M33.1711 19.3018V19.3243L31.9645 20.7123V20.6898L33.1711 19.3018Z" fill="#120D57"/>
<path d="M33.1711 19.3243C33.1711 19.4442 33.1367 19.5436 33.068 19.6226L31.8615 21.0105C31.9302 20.9315 31.9645 20.8321 31.9645 20.7124L33.1711 19.3243Z" fill="#120D57"/>
<path d="M46.4023 31.7787C46.4023 31.3561 46.4558 31.0003 46.5627 30.7113L45.3561 32.0993C45.2492 32.3883 45.1957 32.7441 45.1957 33.1667L46.4023 31.7787Z" fill="#120D57"/>
<path d="M31.5295 18.6279C31.7163 18.5161 31.9572 18.4757 32.2523 18.5067L31.0457 19.8947C30.7506 19.8637 30.5097 19.9041 30.3229 20.0159L31.5295 18.6279Z" fill="#120D57"/>
<path d="M33.068 19.6226C33.0419 19.6525 33.0109 19.6796 32.975 19.7036L31.7684 21.0917C31.8043 21.0676 31.8353 21.0405 31.8614 21.0106L33.068 19.6226Z" fill="#120D57"/>
<path d="M48.9183 33.1328C48.8498 33.3247 48.7603 33.4843 48.6497 33.6114L47.4435 34.999C47.5539 34.8719 47.6433 34.7125 47.7117 34.5208L48.9183 33.1328Z" fill="#120D57"/>
<path d="M39.1644 25.4862C39.6798 25.8634 40.2438 26.0841 40.8563 26.1485L39.6497 27.5365C39.0372 27.4722 38.4732 27.2514 37.9578 26.8742L39.1644 25.4862Z" fill="#120D57"/>
<path d="M36.2637 25.5532V19.6268L35.0571 21.0148V26.9412L36.2637 25.5532Z" fill="#120D57"/>
<path d="M37.9318 23.8864C38.2418 24.5762 38.6527 25.1095 39.1644 25.4862L37.9578 26.8742C37.4461 26.4975 37.0352 25.9642 36.7252 25.2744L37.9318 23.8864Z" fill="#120D57"/>
<path d="M30.1569 16.5513C29.6637 16.7296 29.272 16.9857 28.9819 17.3196L27.7761 18.7067C28.0662 18.3732 28.4575 18.1174 28.9503 17.9393L30.1569 16.5513Z" fill="#120D57"/>
<path d="M31.3774 18.7542C31.4208 18.7043 31.4715 18.6622 31.5295 18.6278L30.3229 20.0158C30.2649 20.0502 30.2142 20.0923 30.1708 20.1422L31.3774 18.7542Z" fill="#120D57"/>
<path d="M32.975 19.7036C32.8442 19.7875 32.6314 19.8421 32.3363 19.8675L31.1297 21.2555C31.4248 21.2302 31.6377 21.1755 31.7684 21.0916L32.975 19.7036Z" fill="#120D57"/>
<path d="M48.6497 33.6115C48.5936 33.676 48.5319 33.7323 48.4649 33.7802L47.2583 35.1682C47.3254 35.1203 47.387 35.0641 47.4431 34.9995L48.6497 33.6115Z" fill="#120D57"/>
<path d="M50.544 36.1172C50.82 35.9732 51.0657 35.7775 51.281 35.53L50.0754 36.9168C49.8599 37.1649 49.6139 37.361 49.3374 37.5052L50.544 36.1172Z" fill="#120D57"/>
<path d="M31.199 19.1847C31.2245 19.0053 31.2839 18.8619 31.3772 18.7545L30.1708 20.1423C30.0774 20.2498 30.0179 20.3932 29.9924 20.5727L31.199 19.1847Z" fill="#120D57"/>
<path d="M41.8639 27.0315L38.8116 26.7107L37.605 28.0987L40.6573 28.4195L41.8639 27.0315Z" fill="#120D57"/>
<path d="M46.5627 32.8742C46.4558 32.559 46.4023 32.1938 46.4023 31.7787L45.1957 33.1667C45.1957 33.5819 45.2492 33.947 45.3561 34.2622L46.5627 32.8742Z" fill="#120D57"/>
<path d="M48.4649 33.7802C48.2695 33.919 48.0317 33.9737 47.7516 33.9443L46.545 35.3323C46.8251 35.3617 47.0629 35.307 47.2583 35.1682L48.4649 33.7802Z" fill="#120D57"/>
<path d="M28.9819 17.3196C28.9359 17.3726 28.8924 17.4275 28.8515 17.4844L27.6449 18.8724C27.6858 18.8155 27.7293 18.7606 27.7753 18.7076L28.9819 17.3196Z" fill="#120D57"/>
<path d="M32.3363 19.8676C32.045 19.8895 31.6584 19.8939 31.1766 19.8809L29.97 21.2689C30.4518 21.282 30.8384 21.2775 31.1297 21.2556L32.3363 19.8676Z" fill="#120D57"/>
<path d="M47.0272 33.6235C46.8281 33.4358 46.6733 33.186 46.5627 32.8741L45.3561 34.2622C45.4667 34.574 45.6215 34.8238 45.8206 35.0116L47.0272 33.6235Z" fill="#120D57"/>
<path d="M47.7515 33.9443C47.4714 33.9149 47.2299 33.8079 47.0271 33.6235L45.8206 35.0116C46.0233 35.196 46.2648 35.3029 46.5449 35.3323L47.7515 33.9443Z" fill="#120D57"/>
<path d="M32.9302 21.5129C33.0235 21.4927 33.1113 21.47 33.1935 21.4448L31.9869 22.8328C31.9047 22.858 31.8169 22.8807 31.7236 22.9009L32.9302 21.5129Z" fill="#120D57"/>
<path d="M33.1935 21.4448V22.1659L31.9869 23.5539V22.8328L33.1935 21.4448Z" fill="#120D57"/>
<path d="M32.6388 21.5668C32.7434 21.5515 32.8405 21.5336 32.9302 21.5129L31.7236 22.901C31.6339 22.9216 31.5368 22.9395 31.4323 22.9548L32.6388 21.5668Z" fill="#120D57"/>
<path d="M48.8796 36.4203C49.4841 36.4838 50.0389 36.3828 50.544 36.1171L49.3374 37.5051C48.8323 37.7708 48.2775 37.8719 47.673 37.8083L48.8796 36.4203Z" fill="#120D57"/>
<path d="M28.3529 18.8855L31.199 19.1846L29.9924 20.5727L27.1463 20.2735L28.3529 18.8855Z" fill="#120D57"/>
<path d="M28.8515 17.4845C28.5564 17.8966 28.3902 18.3637 28.3529 18.8855L27.1463 20.2735C27.1837 19.7517 27.3499 19.2847 27.6449 18.8725L28.8515 17.4845Z" fill="#120D57"/>
<path d="M32.3139 21.6059C32.4297 21.5955 32.538 21.5825 32.6388 21.5668L31.4322 22.9548C31.3314 22.9705 31.2231 22.9835 31.1073 22.9939L32.3139 21.6059Z" fill="#120D57"/>
<path d="M31.1765 19.8807C30.7321 19.8678 30.3175 19.8975 29.9328 19.9697L28.7262 21.3577C29.1109 21.2855 29.5255 21.2558 29.97 21.2688L31.1765 19.8807Z" fill="#120D57"/>
<path d="M31.9609 21.6307C32.0842 21.6249 32.2018 21.6166 32.3139 21.6058L31.1073 22.9939C30.9952 23.0046 30.8776 23.0129 30.7543 23.0187L31.9609 21.6307Z" fill="#120D57"/>
<path d="M33.1934 22.1659C33.1934 22.4288 33.1281 22.6454 32.9974 22.8157L31.7908 24.2037C31.9215 24.0334 31.9869 23.8168 31.9869 23.5539L33.1934 22.1659Z" fill="#120D57"/>
<path d="M31.3727 21.7548C31.5258 21.6845 31.7219 21.6432 31.9609 21.6307L30.7543 23.0188C30.5153 23.0312 30.3192 23.0725 30.1661 23.1428L31.3727 21.7548Z" fill="#120D57"/>
<path d="M32.9974 22.8157C32.9833 22.8341 32.9687 22.852 32.9536 22.8693L31.7474 24.2568C31.7623 24.2396 31.7768 24.2219 31.7908 24.2037L32.9974 22.8157Z" fill="#120D57"/>
<path d="M47.8124 36.1135C48.1257 36.2762 48.4814 36.3785 48.8796 36.4203L47.673 37.8083C47.2749 37.7665 46.9191 37.6642 46.6058 37.5015L47.8124 36.1135Z" fill="#120D57"/>
<path d="M46.4687 34.6547L46.5129 34.6593L45.3063 36.0473L45.2621 36.0427L46.4687 34.6547Z" fill="#120D57"/>
<path d="M25.9928 16.8967C25.6193 16.4706 25.1692 16.1285 24.6426 15.8704L23.436 17.2584C23.9626 17.5165 24.4127 17.8587 24.7862 18.2847L25.9928 16.8967Z" fill="#120D57"/>
<path d="M46.5129 34.6593C46.6309 34.9608 46.7986 35.2379 47.0161 35.4906L45.8095 36.8786C45.592 36.6259 45.4243 36.3488 45.3063 36.0473L46.5129 34.6593Z" fill="#120D57"/>
<path d="M29.9328 19.9698C29.5518 20.0425 29.2175 20.1707 28.9299 20.3546L27.7233 21.7426C28.0109 21.5587 28.3452 21.4305 28.7262 21.3579L29.9328 19.9698Z" fill="#120D57"/>
<path d="M32.9536 22.8693C32.8294 23.012 32.6741 23.1171 32.4875 23.1846L31.2809 24.5726C31.4675 24.5051 31.6228 24.4 31.747 24.2573L32.9536 22.8693Z" fill="#120D57"/>
<path d="M47.0161 35.4905C47.2373 35.7398 47.5027 35.9475 47.8124 36.1135L46.6058 37.5015C46.2961 37.3355 46.0307 37.1279 45.8095 36.8785L47.0161 35.4905Z" fill="#120D57"/>
<path d="M17.3596 8.15741L13.1988 7.72009L11.9922 9.10811L16.153 9.54543L17.3596 8.15741Z" fill="#120D57"/>
<path d="M26.8556 18.3845C26.6539 17.815 26.3663 17.3191 25.9928 16.8967L24.7862 18.2847C25.1597 18.7071 25.4473 19.203 25.649 19.7725L26.8556 18.3845Z" fill="#120D57"/>
<path d="M31.0922 21.9551C31.1632 21.8735 31.2566 21.8067 31.3726 21.7548L30.1661 23.1428C30.0501 23.1947 29.9566 23.2615 29.8856 23.3431L31.0922 21.9551Z" fill="#120D57"/>
<path d="M41.8639 35.5717V27.0315L40.6573 28.4195V36.9598L41.8639 35.5717Z" fill="#120D57"/>
<path d="M24.6426 15.8703C24.116 15.6122 23.5277 15.4489 22.8778 15.3806L21.6712 16.7686C22.3211 16.8369 22.9094 17.0002 23.436 17.2583L24.6426 15.8703Z" fill="#120D57"/>
<path d="M31.0365 22.0293C31.0531 22.0034 31.0716 21.9788 31.092 21.9554L29.8856 23.3431C29.8652 23.3666 29.8466 23.3913 29.8299 23.4173L31.0365 22.0293Z" fill="#120D57"/>
<path d="M33.3055 24.0254L33.3728 24.0325L32.1662 25.4205L32.0989 25.4134L33.3055 24.0254Z" fill="#120D57"/>
<path d="M33.3727 25.2493L36.2636 25.5531L35.057 26.9411L32.1661 26.6373L33.3727 25.2493Z" fill="#120D57"/>
<path d="M32.4876 23.1846C32.2821 23.2606 32.0618 23.2863 31.8265 23.2616L30.6199 24.6496C30.8552 24.6743 31.0755 24.6486 31.281 24.5726L32.4876 23.1846Z" fill="#120D57"/>
<path d="M30.93 22.4237C30.93 22.2735 30.9655 22.142 31.0365 22.0293L29.8299 23.4173C29.7589 23.53 29.7234 23.6615 29.7234 23.8117L30.93 22.4237Z" fill="#120D57"/>
<path d="M43.4163 27.1947V38.9376L42.2097 40.3256V28.5827L43.4163 27.1947Z" fill="#120D57"/>
<path d="M38.8116 26.7107V31.5146L37.605 32.9026V28.0987L38.8116 26.7107Z" fill="#120D57"/>
<path d="M33.0253 24.4271C33.1277 24.3091 33.2211 24.1752 33.3055 24.0254L32.0989 25.4134C32.0145 25.5632 31.9211 25.6971 31.8187 25.8151L33.0253 24.4271Z" fill="#120D57"/>
<path d="M28.9299 20.3545C28.7806 20.45 28.6483 20.5639 28.5332 20.6964L27.3273 22.0837C27.4423 21.9515 27.5743 21.8378 27.7233 21.7425L28.9299 20.3545Z" fill="#120D57"/>
<path d="M33.3727 24.0325V25.2493L32.1661 26.6373V25.4205L33.3727 24.0325Z" fill="#120D57"/>
<path d="M31.1821 23.0023C31.0141 22.8569 30.93 22.6641 30.93 22.4237L29.7234 23.8117C29.7234 24.0521 29.8075 24.2449 29.9756 24.3903L31.1821 23.0023Z" fill="#120D57"/>
<path d="M31.8265 23.2616C31.565 23.2341 31.3502 23.1477 31.1822 23.0023L29.9756 24.3903C30.1437 24.5357 30.3584 24.6221 30.6199 24.6496L31.8265 23.2616Z" fill="#120D57"/>
<path d="M27.1581 20.2697C27.1581 19.5824 27.0573 18.954 26.8556 18.3845L25.649 19.7725C25.8507 20.3421 25.9515 20.9705 25.9515 21.6577L27.1581 20.2697Z" fill="#120D57"/>
<path d="M36.3564 26.4527L33.3041 26.1318L32.0975 27.5199L35.1498 27.8407L36.3564 26.4527Z" fill="#120D57"/>
<path d="M32.678 24.7425C32.8027 24.655 32.9178 24.5505 33.0234 24.4292L31.8187 25.8151C31.7126 25.9373 31.5968 26.0425 31.4714 26.1305L32.678 24.7425Z" fill="#120D57"/>
<path d="M28.5333 20.6964C28.4267 20.8191 28.3348 20.9576 28.2576 21.112L27.051 22.5C27.1282 22.3456 27.2201 22.2071 27.3267 22.0844L28.5333 20.6964Z" fill="#120D57"/>
<path d="M46.4687 39.2584V34.6547L45.2621 36.0427V40.6464L46.4687 39.2584Z" fill="#120D57"/>
<path d="M22.8778 15.3807C21.9889 15.2872 21.2176 15.3921 20.5639 15.6952L19.3574 17.0832C20.011 16.7801 20.7823 16.6753 21.6712 16.7687L22.8778 15.3807Z" fill="#120D57"/>
<path d="M18.2352 11.452V13.9882L17.0286 15.3762V12.84L18.2352 11.452Z" fill="#120D57"/>
<path d="M31.8432 25.0886C32.157 25.0314 32.4352 24.9161 32.678 24.7426L31.4714 26.1306C31.2287 26.3041 30.9504 26.4194 30.6367 26.4766L31.8432 25.0886Z" fill="#120D57"/>
<path d="M27.1581 20.9907V20.2697L25.9515 21.6577V22.3787L27.1581 20.9907Z" fill="#120D57"/>
<path d="M28.2576 21.1119C28.097 21.4293 28.0167 21.8246 28.0167 22.2978L26.8101 23.6858C26.8101 23.2126 26.8904 22.8173 27.051 22.5L28.2576 21.1119Z" fill="#120D57"/>
<path d="M36.3564 31.2565V26.4526L35.1498 27.8407V32.6445L36.3564 31.2565Z" fill="#120D57"/>
<path d="M23.6341 17.8093C23.8396 17.9361 24.002 18.1015 24.1216 18.3056L22.915 19.6936C22.7955 19.4895 22.633 19.3241 22.4276 19.1973L23.6341 17.8093Z" fill="#120D57"/>
<path d="M22.945 17.5735C23.2027 17.6006 23.4324 17.6792 23.6341 17.8093L22.4275 19.1973C22.2258 19.0672 21.9961 18.9886 21.7384 18.9615L22.945 17.5735Z" fill="#120D57"/>
<path d="M24.1216 18.3055C24.2448 18.5063 24.3083 18.7308 24.3121 18.979L23.1055 20.3671C23.1017 20.1188 23.0382 19.8943 22.915 19.6936L24.1216 18.3055Z" fill="#120D57"/>
<path d="M30.818 25.1159C31.1915 25.1552 31.5332 25.1461 31.8432 25.0885L30.6367 26.4765C30.3266 26.5341 29.9849 26.5432 29.6114 26.504L30.818 25.1159Z" fill="#120D57"/>
<path d="M22.2559 17.6644C22.4651 17.5775 22.6948 17.5472 22.945 17.5735L21.7384 18.9615C21.4882 18.9352 21.2585 18.9655 21.0493 19.0525L22.2559 17.6644Z" fill="#120D57"/>
<path d="M38.8115 31.5146C38.8152 31.7967 38.7654 32.0343 38.6622 32.2273L37.4556 33.6153C37.5588 33.4223 37.6086 33.1848 37.6049 32.9027L38.8115 31.5146Z" fill="#120D57"/>
<path d="M28.0167 22.2979C28.0167 22.8725 28.1362 23.3582 28.3753 23.7552L27.1687 25.1432C26.9296 24.7462 26.8101 24.2605 26.8101 23.6859L28.0167 22.2979Z" fill="#120D57"/>
<path d="M21.8128 17.9739C21.9311 17.838 22.0787 17.7349 22.2559 17.6644L21.0493 19.0524C20.8721 19.1229 20.7245 19.2261 20.6063 19.362L21.8128 17.9739Z" fill="#120D57"/>
<path d="M20.5639 15.6952C20.1239 15.8992 19.7508 16.1775 19.4445 16.53L18.2391 17.9167C18.5451 17.5648 18.9179 17.287 19.3573 17.0832L20.5639 15.6952Z" fill="#120D57"/>
<path d="M29.3613 24.6925C29.7834 24.9171 30.2689 25.0583 30.818 25.116L29.6114 26.504C29.0623 26.4463 28.5768 26.3052 28.1547 26.0805L29.3613 24.6925Z" fill="#120D57"/>
<path d="M38.6622 32.2273C38.6248 32.2987 38.581 32.3631 38.531 32.4206L37.3248 33.8082C37.3747 33.7509 37.4183 33.6865 37.4556 33.6153L38.6622 32.2273Z" fill="#120D57"/>
<path d="M21.7517 18.0509C21.771 18.0244 21.7913 17.9989 21.8125 17.9745L20.6063 19.362C20.5849 19.3866 20.5645 19.4122 20.5451 19.4389L21.7517 18.0509Z" fill="#120D57"/>
<path d="M28.3753 23.7551C28.6143 24.1521 28.943 24.4645 29.3613 24.6925L28.1547 26.0805C27.7364 25.8525 27.4077 25.5401 27.1687 25.1431L28.3753 23.7551Z" fill="#120D57"/>
<path d="M38.5311 32.4205C38.4482 32.5158 38.3482 32.5919 38.2309 32.6489L37.0244 34.037C37.1416 33.9799 37.2416 33.9038 37.3245 33.8086L38.5311 32.4205Z" fill="#120D57"/>
<path d="M27.1581 21.802C27.061 22.3927 26.8313 22.8906 26.469 23.2957L25.3133 24.6251C25.2966 24.6449 25.2797 24.6644 25.2624 24.6837L25.3133 24.6251C25.6463 24.2309 25.859 23.7526 25.9515 23.19L27.1581 21.802Z" fill="#120D57"/>
<path d="M13.1988 7.72009V13.7398L11.9922 15.1278V9.10811L13.1988 7.72009Z" fill="#120D57"/>
<path d="M27.1581 21.8019L24.3345 21.5051L23.1279 22.8931L25.9516 23.1899L27.1581 21.8019Z" fill="#120D57"/>
<path d="M32.53 28.8976V26.3615L31.3234 27.7495V30.2856L32.53 28.8976Z" fill="#120D57"/>
<path d="M21.5556 18.6893C21.5631 18.4384 21.6284 18.2256 21.7517 18.0508L20.5451 19.4388C20.4218 19.6136 20.3565 19.8265 20.349 20.0773L21.5556 18.6893Z" fill="#120D57"/>
<path d="M24.312 18.979L19.4714 18.4702L18.2648 19.8582L23.1054 20.367L24.312 18.979Z" fill="#120D57"/>
<path d="M38.2309 32.6489C38.0466 32.737 37.8273 32.7677 37.5729 32.741L36.3663 34.129C36.6207 34.1558 36.84 34.1251 37.0244 34.0369L38.2309 32.6489Z" fill="#120D57"/>
<path d="M38.8779 33.6344L38.9664 33.6437L37.7598 35.0317L37.6713 35.0224L38.8779 33.6344Z" fill="#120D57"/>
<path d="M33.3041 26.1318V31.5807L32.0975 32.9687V27.5199L33.3041 26.1318Z" fill="#120D57"/>
<path d="M36.6771 32.2856C36.467 32.0225 36.3601 31.6795 36.3564 31.2566L35.1498 32.6446C35.1535 33.0676 35.2604 33.4105 35.4706 33.6736L36.6771 32.2856Z" fill="#120D57"/>
<path d="M43.4163 38.9375L46.4686 39.2583L45.2621 40.6463L42.2097 40.3255L43.4163 38.9375Z" fill="#120D57"/>
<path d="M19.4445 16.53C19.2958 16.7012 19.1628 16.8899 19.0456 17.096L17.8391 18.4841C17.9562 18.2779 18.0892 18.0892 18.2379 17.918L19.4445 16.53Z" fill="#120D57"/>
<path d="M37.5729 32.7411C37.1895 32.7008 36.8909 32.5489 36.6771 32.2855L35.4705 33.6735C35.6843 33.9369 35.9829 34.0888 36.3663 34.1291L37.5729 32.7411Z" fill="#120D57"/>
<path d="M38.9664 35.2672L41.8639 35.5718L40.6573 36.9598L37.7598 36.6552L38.9664 35.2672Z" fill="#120D57"/>
<path d="M19.4714 20.1829L27.1581 20.9908L25.9515 22.3788L18.2648 21.5709L19.4714 20.1829Z" fill="#120D57"/>
<path d="M38.4623 34.3648C38.6405 34.1596 38.7791 33.9161 38.8779 33.6344L37.6713 35.0224C37.5725 35.3042 37.434 35.5476 37.2557 35.7528L38.4623 34.3648Z" fill="#120D57"/>
<path d="M24.3345 21.5051C24.2945 21.6089 24.2396 21.7009 24.1696 21.7814L22.9633 23.169C23.0331 23.0887 23.088 22.9967 23.1279 22.8931L24.3345 21.5051Z" fill="#120D57"/>
<path d="M38.9664 33.6437V35.2672L37.7598 36.6552V35.0317L38.9664 33.6437Z" fill="#120D57"/>
<path d="M17.3596 23.5677V8.15735L16.153 9.54537V24.9558L17.3596 23.5677Z" fill="#120D57"/>
<path d="M21.5556 20.5371V18.6893L20.349 20.0773V21.9251L21.5556 20.5371Z" fill="#120D57"/>
<path d="M24.1696 21.7814C24.1349 21.8213 24.0964 21.8584 24.0543 21.8925L22.8477 23.2806C22.8898 23.2464 22.9283 23.2093 22.963 23.1694L24.1696 21.7814Z" fill="#120D57"/>
<path d="M24.0543 21.8926C23.9273 21.9919 23.7742 22.0622 23.5949 22.1034L22.3883 23.4914C22.5676 23.4502 22.7207 23.3799 22.8477 23.2806L24.0543 21.8926Z" fill="#120D57"/>
<path d="M25.0292 24.1696C25.6268 23.9883 26.1067 23.697 26.469 23.2957L25.2624 24.6837C24.9001 25.085 24.4202 25.3763 23.8226 25.5576L25.0292 24.1696Z" fill="#120D57"/>
<path d="M37.9102 34.8115C38.1236 34.6914 38.3074 34.5427 38.4615 34.3655L37.2556 35.7528C37.1014 35.9303 36.9174 36.0792 36.7036 36.1995L37.9102 34.8115Z" fill="#120D57"/>
<path d="M23.5949 22.1034C23.4194 22.145 23.2251 22.1547 23.0123 22.1323L21.8057 23.5203C22.0186 23.5427 22.2128 23.5331 22.3883 23.4914L23.5949 22.1034Z" fill="#120D57"/>
<path d="M19.0456 17.0961C18.6871 17.7269 18.5078 18.4892 18.5078 19.383L17.3012 20.7711C17.3012 19.8772 17.4805 19.1149 17.8391 18.4841L19.0456 17.0961Z" fill="#120D57"/>
<path d="M7.69108 7.14117L3.53032 6.70386L2.32373 8.09188L6.48449 8.52919L7.69108 7.14117Z" fill="#120D57"/>
<path d="M21.7293 21.299C21.6135 21.069 21.5556 20.815 21.5556 20.5371L20.349 21.9251C20.349 22.203 20.4069 22.457 20.5227 22.687L21.7293 21.299Z" fill="#120D57"/>
<path d="M23.0122 22.1324C22.706 22.1002 22.4445 22.0107 22.2279 21.864L21.0213 23.252C21.2379 23.3987 21.4994 23.4882 21.8057 23.5204L23.0122 22.1324Z" fill="#120D57"/>
<path d="M19.4714 18.4702V20.1828L18.2648 21.5708V19.8582L19.4714 18.4702Z" fill="#120D57"/>
<path d="M22.2279 21.864C22.0112 21.7173 21.845 21.5289 21.7292 21.299L20.5226 22.687C20.6384 22.917 20.8046 23.1053 21.0213 23.252L22.2279 21.864Z" fill="#120D57"/>
<path d="M36.2679 35.0948C36.902 35.1615 37.4494 35.067 37.9102 34.8115L36.7036 36.1995C36.2428 36.4551 35.6954 36.5495 35.0613 36.4829L36.2679 35.0948Z" fill="#120D57"/>
<path d="M33.3041 31.5807C33.3077 32.2038 33.4312 32.7691 33.6745 33.2765L32.468 34.6645C32.2247 34.1571 32.1012 33.5918 32.0975 32.9687L33.3041 31.5807Z" fill="#120D57"/>
<path d="M22.945 24.311C23.7406 24.3947 24.4353 24.3475 25.0291 24.1696L23.8226 25.5576C23.2287 25.7355 22.534 25.7827 21.7384 25.6991L22.945 24.311Z" fill="#120D57"/>
<path d="M7.69108 13.1609V7.14124L6.4845 8.52925V14.5489L7.69108 13.1609Z" fill="#120D57"/>
<path d="M34.7086 34.5194C35.1547 34.8406 35.6744 35.0324 36.268 35.0947L35.0614 36.4828C34.4679 36.4204 33.9481 36.2286 33.502 35.9074L34.7086 34.5194Z" fill="#120D57"/>
<path d="M33.6745 33.2765C33.9215 33.7843 34.2662 34.1986 34.7086 34.5194L33.502 35.9074C33.0596 35.5866 32.7149 35.1723 32.468 34.6645L33.6745 33.2765Z" fill="#120D57"/>
<path d="M18.5078 19.3831C18.5078 20.3144 18.6852 21.133 19.04 21.8388L17.8334 23.2268C17.4786 22.5211 17.3012 21.7025 17.3012 20.7711L18.5078 19.3831Z" fill="#120D57"/>
<path d="M13.1989 13.7398L7.69108 13.1609L6.4845 14.5489L11.9923 15.1278L13.1989 13.7398Z" fill="#120D57"/>
<path d="M20.5695 23.5319C21.2343 23.9548 22.0262 24.2145 22.945 24.3111L21.7384 25.6991C20.8196 25.6025 20.0278 25.3428 19.3629 24.9199L20.5695 23.5319Z" fill="#120D57"/>
<path d="M19.04 21.8387C19.3986 22.5412 19.9084 23.1055 20.5695 23.5318L19.3629 24.9198C18.7018 24.4935 18.192 23.9292 17.8334 23.2268L19.04 21.8387Z" fill="#120D57"/>
<path d="M32.5299 26.3615L13.1791 24.3276L11.9725 25.7157L31.3233 27.7495L32.5299 26.3615Z" fill="#120D57"/>
<path d="M7.69108 16.5319L13.1989 17.1108L11.9923 18.4988L6.4845 17.9199L7.69108 16.5319Z" fill="#120D57"/>
<path d="M13.1791 26.8638L32.5299 28.8976L31.3233 30.2856L11.9725 28.2518L13.1791 26.8638Z" fill="#120D57"/>
<path d="M13.1988 17.1108V23.1305L11.9922 24.5185V18.4989L13.1988 17.1108Z" fill="#120D57"/>
<path d="M13.1988 23.1305L17.3596 23.5678L16.153 24.9558L11.9922 24.5185L13.1988 23.1305Z" fill="#120D57"/>
<path d="M3.53032 6.70386V22.1143L2.32373 23.5023V8.09188L3.53032 6.70386Z" fill="#120D57"/>
<path d="M7.69108 22.5515V16.5319L6.4845 17.9199V23.9396L7.69108 22.5515Z" fill="#120D57"/>
<path d="M13.1791 24.3276V26.8638L11.9725 28.2518V25.7157L13.1791 24.3276Z" fill="#120D57"/>
<path d="M3.53032 22.1143L7.69108 22.5516L6.48449 23.9396L2.32373 23.5023L3.53032 22.1143Z" fill="#120D57"/>
<path d="M3.52441 22.1026V6.69216L7.68518 7.12948V13.1492L13.193 13.7281V7.70837L17.3537 8.14568V23.5561L13.193 23.1188V17.0991L7.68518 16.5202V22.5399L3.52441 22.1026Z" fill="white"/>
<path d="M3.52441 22.1026V6.69216L7.68518 7.12948V13.1492L13.193 13.7281V7.70837L17.3537 8.14568V23.5561L13.193 23.1188V17.0991L7.68518 16.5202V22.5399L3.52441 22.1026Z" fill="url(#paint0_linear_208_10860)"/>
<path d="M38.8056 31.5029V26.699L41.858 27.0198V35.56L38.9605 35.2555V33.632L38.872 33.6227C38.6877 34.1482 38.3651 34.5405 37.9043 34.7998C37.4435 35.0553 36.8961 35.1497 36.262 35.0831C35.6685 35.0207 35.1487 34.8289 34.7027 34.5077C34.2603 34.1869 33.9156 33.7726 33.6686 33.2648C33.4253 32.7574 33.3018 32.1921 33.2982 31.569V26.1201L36.3505 26.4409V31.2448C36.3542 31.6678 36.4611 32.0108 36.6712 32.2738C36.885 32.5372 37.1836 32.689 37.567 32.7293C37.8214 32.7561 38.0407 32.7254 38.225 32.6372C38.413 32.5458 38.5568 32.4052 38.6563 32.2155C38.7596 32.0225 38.8093 31.785 38.8056 31.5029Z" fill="white"/>
<path d="M38.8056 31.5029V26.699L41.858 27.0198V35.56L38.9605 35.2555V33.632L38.872 33.6227C38.6877 34.1482 38.3651 34.5405 37.9043 34.7998C37.4435 35.0553 36.8961 35.1497 36.262 35.0831C35.6685 35.0207 35.1487 34.8289 34.7027 34.5077C34.2603 34.1869 33.9156 33.7726 33.6686 33.2648C33.4253 32.7574 33.3018 32.1921 33.2982 31.569V26.1201L36.3505 26.4409V31.2448C36.3542 31.6678 36.4611 32.0108 36.6712 32.2738C36.885 32.5372 37.1836 32.689 37.567 32.7293C37.8214 32.7561 38.0407 32.7254 38.225 32.6372C38.413 32.5458 38.5568 32.4052 38.6563 32.2155C38.7596 32.0225 38.8093 31.785 38.8056 31.5029Z" fill="url(#paint1_linear_208_10860)"/>
<path d="M43.4104 38.9258V27.1829L46.4406 27.5014V28.9915L46.507 28.9985C46.6176 28.721 46.7798 28.473 46.9936 28.2546C47.2074 28.0324 47.4728 27.8657 47.7899 27.7544C48.1069 27.6395 48.4755 27.6041 48.8958 27.6483C49.4561 27.7072 49.9888 27.9133 50.4938 28.2666C51.0026 28.6203 51.4154 29.1363 51.7325 29.8146C52.0532 30.4933 52.2135 31.3479 52.2135 32.3783C52.2135 33.3643 52.0606 34.1656 51.7546 34.7821C51.4523 35.399 51.0468 35.8401 50.5381 36.1054C50.033 36.3711 49.4782 36.4722 48.8737 36.4086C48.4755 36.3668 48.1198 36.2645 47.8064 36.1018C47.4968 35.9359 47.2314 35.7282 47.0102 35.4788C46.7927 35.2262 46.625 34.9491 46.507 34.6475L46.4628 34.6429V39.2466L43.4104 38.9258ZM46.3964 31.7669C46.3964 32.1821 46.4499 32.5472 46.5568 32.8624C46.6674 33.1743 46.8222 33.4241 47.0212 33.6118C47.224 33.7962 47.4655 33.9031 47.7456 33.9326C48.0258 33.962 48.2636 33.9073 48.4589 33.7685C48.658 33.6263 48.8092 33.4105 48.9124 33.1211C49.0193 32.8284 49.0727 32.4708 49.0727 32.0482C49.0727 31.6256 49.0193 31.2586 48.9124 30.9471C48.8092 30.6323 48.658 30.3848 48.4589 30.2045C48.2636 30.0208 48.0258 29.9143 47.7456 29.8849C47.4655 29.8554 47.224 29.9116 47.0212 30.0534C46.8222 30.1918 46.6674 30.4072 46.5568 30.6996C46.4499 30.9886 46.3964 31.3443 46.3964 31.7669Z" fill="white"/>
<path d="M43.4104 38.9258V27.1829L46.4406 27.5014V28.9915L46.507 28.9985C46.6176 28.721 46.7798 28.473 46.9936 28.2546C47.2074 28.0324 47.4728 27.8657 47.7899 27.7544C48.1069 27.6395 48.4755 27.6041 48.8958 27.6483C49.4561 27.7072 49.9888 27.9133 50.4938 28.2666C51.0026 28.6203 51.4154 29.1363 51.7325 29.8146C52.0532 30.4933 52.2135 31.3479 52.2135 32.3783C52.2135 33.3643 52.0606 34.1656 51.7546 34.7821C51.4523 35.399 51.0468 35.8401 50.5381 36.1054C50.033 36.3711 49.4782 36.4722 48.8737 36.4086C48.4755 36.3668 48.1198 36.2645 47.8064 36.1018C47.4968 35.9359 47.2314 35.7282 47.0102 35.4788C46.7927 35.2262 46.625 34.9491 46.507 34.6475L46.4628 34.6429V39.2466L43.4104 38.9258ZM46.3964 31.7669C46.3964 32.1821 46.4499 32.5472 46.5568 32.8624C46.6674 33.1743 46.8222 33.4241 47.0212 33.6118C47.224 33.7962 47.4655 33.9031 47.7456 33.9326C48.0258 33.962 48.2636 33.9073 48.4589 33.7685C48.658 33.6263 48.8092 33.4105 48.9124 33.1211C49.0193 32.8284 49.0727 32.4708 49.0727 32.0482C49.0727 31.6256 49.0193 31.2586 48.9124 30.9471C48.8092 30.6323 48.658 30.3848 48.4589 30.2045C48.2636 30.0208 48.0258 29.9143 47.7456 29.8849C47.4655 29.8554 47.224 29.9116 47.0212 30.0534C46.8222 30.1918 46.6674 30.4072 46.5568 30.6996C46.4499 30.9886 46.3964 31.3443 46.3964 31.7669Z" fill="url(#paint2_linear_208_10860)"/>
<path d="M22.9391 24.2993C22.0203 24.2027 21.2284 23.943 20.5636 23.5201C19.9025 23.0938 19.3927 22.5295 19.0341 21.8271C18.6793 21.1213 18.5019 20.3027 18.5019 19.3713C18.5019 18.4775 18.6812 17.7151 19.0397 17.0843C19.3983 16.4535 19.9044 15.9866 20.558 15.6834C21.2116 15.3803 21.9829 15.2755 22.8719 15.3689C23.5218 15.4372 24.11 15.6005 24.6367 15.8586C25.1633 16.1168 25.6134 16.4589 25.9869 16.885C26.3604 17.3073 26.648 17.8032 26.8497 18.3728C27.0514 18.9423 27.1522 19.5707 27.1522 20.2579V20.979L19.4655 20.1711V18.4586L24.3061 18.9673C24.3024 18.7191 24.2389 18.4946 24.1156 18.2938C23.9961 18.0897 23.8336 17.9243 23.6282 17.7976C23.4265 17.6674 23.1968 17.5888 22.9391 17.5618C22.6888 17.5355 22.4591 17.5658 22.25 17.6527C22.0408 17.7359 21.8727 17.8647 21.7457 18.0391C21.6225 18.2139 21.5571 18.4268 21.5497 18.6776V20.5254C21.5497 20.8033 21.6076 21.0572 21.7233 21.2872C21.8391 21.5172 22.0053 21.7056 22.222 21.8523C22.4386 21.999 22.7 22.0884 23.0063 22.1206C23.2192 22.143 23.4134 22.1334 23.589 22.0917C23.7683 22.0505 23.9214 21.9802 24.0484 21.8809C24.1754 21.7778 24.2688 21.6487 24.3285 21.4934L27.1522 21.7902C27.0551 22.3809 26.8254 22.8788 26.4631 23.2839C26.1008 23.6852 25.6208 23.9765 25.0232 24.1578C24.4294 24.3358 23.7347 24.3829 22.9391 24.2993Z" fill="white"/>
<path d="M22.9391 24.2993C22.0203 24.2027 21.2284 23.943 20.5636 23.5201C19.9025 23.0938 19.3927 22.5295 19.0341 21.8271C18.6793 21.1213 18.5019 20.3027 18.5019 19.3713C18.5019 18.4775 18.6812 17.7151 19.0397 17.0843C19.3983 16.4535 19.9044 15.9866 20.558 15.6834C21.2116 15.3803 21.9829 15.2755 22.8719 15.3689C23.5218 15.4372 24.11 15.6005 24.6367 15.8586C25.1633 16.1168 25.6134 16.4589 25.9869 16.885C26.3604 17.3073 26.648 17.8032 26.8497 18.3728C27.0514 18.9423 27.1522 19.5707 27.1522 20.2579V20.979L19.4655 20.1711V18.4586L24.3061 18.9673C24.3024 18.7191 24.2389 18.4946 24.1156 18.2938C23.9961 18.0897 23.8336 17.9243 23.6282 17.7976C23.4265 17.6674 23.1968 17.5888 22.9391 17.5618C22.6888 17.5355 22.4591 17.5658 22.25 17.6527C22.0408 17.7359 21.8727 17.8647 21.7457 18.0391C21.6225 18.2139 21.5571 18.4268 21.5497 18.6776V20.5254C21.5497 20.8033 21.6076 21.0572 21.7233 21.2872C21.8391 21.5172 22.0053 21.7056 22.222 21.8523C22.4386 21.999 22.7 22.0884 23.0063 22.1206C23.2192 22.143 23.4134 22.1334 23.589 22.0917C23.7683 22.0505 23.9214 21.9802 24.0484 21.8809C24.1754 21.7778 24.2688 21.6487 24.3285 21.4934L27.1522 21.7902C27.0551 22.3809 26.8254 22.8788 26.4631 23.2839C26.1008 23.6852 25.6208 23.9765 25.0232 24.1578C24.4294 24.3358 23.7347 24.3829 22.9391 24.2993Z" fill="url(#paint3_linear_208_10860)"/>
<path d="M30.8121 25.1043C30.263 25.0466 29.7775 24.9054 29.3554 24.6808C28.9371 24.4528 28.6084 24.1403 28.3694 23.7434C28.1303 23.3464 28.0108 22.8607 28.0108 22.2861C28.0108 21.8129 28.0911 21.4176 28.2517 21.1002C28.4123 20.7791 28.6364 20.5266 28.924 20.3428C29.2116 20.1589 29.5459 20.0307 29.9269 19.9581C30.3116 19.8858 30.7262 19.8562 31.1706 19.8691C31.6525 19.8822 32.039 19.8777 32.3304 19.8558C32.6254 19.8305 32.8383 19.7758 32.969 19.6919C33.0998 19.6043 33.1651 19.4778 33.1651 19.3126V19.29C33.1651 19.0647 33.0792 18.8829 32.9074 18.7447C32.7356 18.6064 32.5152 18.5232 32.2463 18.4949C31.9513 18.4639 31.7103 18.5043 31.5236 18.6161C31.3406 18.7246 31.2304 18.9102 31.193 19.1729L28.3469 18.8738C28.3843 18.3519 28.5505 17.8849 28.8456 17.4727C29.1444 17.0572 29.5795 16.7462 30.151 16.5396C30.7224 16.3293 31.4358 16.269 32.2911 16.3589C32.9074 16.4237 33.4602 16.555 33.9495 16.7529C34.4388 16.9471 34.8552 17.1918 35.1989 17.487C35.5425 17.7785 35.8039 18.1065 35.9832 18.4708C36.1662 18.8318 36.2577 19.2132 36.2577 19.6151V25.5414L33.3668 25.2376V24.0208L33.2996 24.0137C33.1278 24.3186 32.9186 24.5577 32.6721 24.7308C32.4293 24.9043 32.1511 25.0197 31.8373 25.0768C31.5273 25.1344 31.1856 25.1435 30.8121 25.1043ZM31.8205 23.2498C32.0558 23.2746 32.2762 23.2489 32.4816 23.1728C32.6908 23.0972 32.8607 22.9742 32.9915 22.8039C33.1222 22.6336 33.1875 22.4171 33.1875 22.1542V21.4331C33.1054 21.4583 33.0176 21.4809 32.9242 21.5012C32.8346 21.5218 32.7375 21.5398 32.6329 21.5551C32.532 21.5707 32.4237 21.5838 32.3079 21.5941C32.1959 21.6049 32.0782 21.6132 31.955 21.619C31.7159 21.6314 31.5199 21.6728 31.3667 21.7431C31.2173 21.81 31.1053 21.9015 31.0306 22.0176C30.9596 22.1303 30.9241 22.2618 30.9241 22.412C30.9241 22.6524 31.0082 22.8452 31.1762 22.9906C31.3443 23.1359 31.5591 23.2224 31.8205 23.2498Z" fill="white"/>
<path d="M30.8121 25.1043C30.263 25.0466 29.7775 24.9054 29.3554 24.6808C28.9371 24.4528 28.6084 24.1403 28.3694 23.7434C28.1303 23.3464 28.0108 22.8607 28.0108 22.2861C28.0108 21.8129 28.0911 21.4176 28.2517 21.1002C28.4123 20.7791 28.6364 20.5266 28.924 20.3428C29.2116 20.1589 29.5459 20.0307 29.9269 19.9581C30.3116 19.8858 30.7262 19.8562 31.1706 19.8691C31.6525 19.8822 32.039 19.8777 32.3304 19.8558C32.6254 19.8305 32.8383 19.7758 32.969 19.6919C33.0998 19.6043 33.1651 19.4778 33.1651 19.3126V19.29C33.1651 19.0647 33.0792 18.8829 32.9074 18.7447C32.7356 18.6064 32.5152 18.5232 32.2463 18.4949C31.9513 18.4639 31.7103 18.5043 31.5236 18.6161C31.3406 18.7246 31.2304 18.9102 31.193 19.1729L28.3469 18.8738C28.3843 18.3519 28.5505 17.8849 28.8456 17.4727C29.1444 17.0572 29.5795 16.7462 30.151 16.5396C30.7224 16.3293 31.4358 16.269 32.2911 16.3589C32.9074 16.4237 33.4602 16.555 33.9495 16.7529C34.4388 16.9471 34.8552 17.1918 35.1989 17.487C35.5425 17.7785 35.8039 18.1065 35.9832 18.4708C36.1662 18.8318 36.2577 19.2132 36.2577 19.6151V25.5414L33.3668 25.2376V24.0208L33.2996 24.0137C33.1278 24.3186 32.9186 24.5577 32.6721 24.7308C32.4293 24.9043 32.1511 25.0197 31.8373 25.0768C31.5273 25.1344 31.1856 25.1435 30.8121 25.1043ZM31.8205 23.2498C32.0558 23.2746 32.2762 23.2489 32.4816 23.1728C32.6908 23.0972 32.8607 22.9742 32.9915 22.8039C33.1222 22.6336 33.1875 22.4171 33.1875 22.1542V21.4331C33.1054 21.4583 33.0176 21.4809 32.9242 21.5012C32.8346 21.5218 32.7375 21.5398 32.6329 21.5551C32.532 21.5707 32.4237 21.5838 32.3079 21.5941C32.1959 21.6049 32.0782 21.6132 31.955 21.619C31.7159 21.6314 31.5199 21.6728 31.3667 21.7431C31.2173 21.81 31.1053 21.9015 31.0306 22.0176C30.9596 22.1303 30.9241 22.2618 30.9241 22.412C30.9241 22.6524 31.0082 22.8452 31.1762 22.9906C31.3443 23.1359 31.5591 23.2224 31.8205 23.2498Z" fill="url(#paint4_linear_208_10860)"/>
<path d="M40.8504 26.1368C40.2379 26.0724 39.6739 25.8517 39.1585 25.4745C38.6468 25.0977 38.2359 24.5644 37.9259 23.8746C37.6196 23.1852 37.4665 22.341 37.4665 21.342C37.4665 20.298 37.6271 19.4661 37.9483 18.8464C38.2733 18.227 38.6916 17.7922 39.2033 17.5417C39.7187 17.2917 40.2603 17.1965 40.828 17.2562C41.2538 17.301 41.6273 17.4153 41.9485 17.5993C42.2697 17.7795 42.5387 18.005 42.7553 18.2756C42.9719 18.5425 43.1363 18.8283 43.2483 19.133L43.2931 19.1377V14.7437L46.3857 15.0687V26.6059L43.3155 26.2832V24.8636L43.2483 24.8565C43.1288 25.1369 42.957 25.3818 42.7329 25.591C42.5125 25.797 42.2436 25.9509 41.9261 26.0527C41.6124 26.1512 41.2538 26.1792 40.8504 26.1368ZM41.9933 23.8684C42.2772 23.8982 42.52 23.8411 42.7217 23.697C42.9271 23.5496 43.084 23.3295 43.1923 23.0367C43.3043 22.7405 43.3604 22.3821 43.3604 21.9615C43.3604 21.5333 43.3043 21.1613 43.1923 20.8453C43.084 20.526 42.9271 20.2748 42.7217 20.0917C42.52 19.9052 42.2772 19.7971 41.9933 19.7672C41.7095 19.7374 41.4667 19.7945 41.265 19.9386C41.0671 20.0793 40.9139 20.2979 40.8056 20.5945C40.701 20.8877 40.6487 21.2483 40.6487 21.6765C40.6487 22.1046 40.701 22.4782 40.8056 22.7971C40.9139 23.1127 41.0671 23.3635 41.265 23.5496C41.4667 23.7323 41.7095 23.8385 41.9933 23.8684Z" fill="white"/>
<path d="M40.8504 26.1368C40.2379 26.0724 39.6739 25.8517 39.1585 25.4745C38.6468 25.0977 38.2359 24.5644 37.9259 23.8746C37.6196 23.1852 37.4665 22.341 37.4665 21.342C37.4665 20.298 37.6271 19.4661 37.9483 18.8464C38.2733 18.227 38.6916 17.7922 39.2033 17.5417C39.7187 17.2917 40.2603 17.1965 40.828 17.2562C41.2538 17.301 41.6273 17.4153 41.9485 17.5993C42.2697 17.7795 42.5387 18.005 42.7553 18.2756C42.9719 18.5425 43.1363 18.8283 43.2483 19.133L43.2931 19.1377V14.7437L46.3857 15.0687V26.6059L43.3155 26.2832V24.8636L43.2483 24.8565C43.1288 25.1369 42.957 25.3818 42.7329 25.591C42.5125 25.797 42.2436 25.9509 41.9261 26.0527C41.6124 26.1512 41.2538 26.1792 40.8504 26.1368ZM41.9933 23.8684C42.2772 23.8982 42.52 23.8411 42.7217 23.697C42.9271 23.5496 43.084 23.3295 43.1923 23.0367C43.3043 22.7405 43.3604 22.3821 43.3604 21.9615C43.3604 21.5333 43.3043 21.1613 43.1923 20.8453C43.084 20.526 42.9271 20.2748 42.7217 20.0917C42.52 19.9052 42.2772 19.7971 41.9933 19.7672C41.7095 19.7374 41.4667 19.7945 41.265 19.9386C41.0671 20.0793 40.9139 20.2979 40.8056 20.5945C40.701 20.8877 40.6487 21.2483 40.6487 21.6765C40.6487 22.1046 40.701 22.4782 40.8056 22.7971C40.9139 23.1127 41.0671 23.3635 41.265 23.5496C41.4667 23.7323 41.7095 23.8385 41.9933 23.8684Z" fill="url(#paint5_linear_208_10860)"/>
<path d="M55.77 21.756L52.9239 21.4569C52.909 21.2788 52.8473 21.1202 52.739 20.9812C52.6307 20.8421 52.4906 20.7297 52.3188 20.6441C52.1508 20.555 51.964 20.4997 51.7586 20.4781C51.4934 20.4503 51.2656 20.4751 51.0751 20.5528C50.8846 20.6304 50.7912 20.7595 50.7949 20.9402C50.7912 21.0675 50.8454 21.1915 50.9574 21.3122C51.0732 21.4333 51.2954 21.5411 51.6241 21.6358L53.3721 22.135C54.2536 22.3891 54.9091 22.7303 55.3386 23.1585C55.7719 23.5833 55.9904 24.1152 55.9941 24.754C55.9904 25.3696 55.8074 25.8855 55.4451 26.3018C55.0865 26.7148 54.5953 27.0125 53.9716 27.1948C53.3516 27.3737 52.6438 27.4214 51.8482 27.3378C50.5335 27.1996 49.5045 26.821 48.7612 26.2021C48.0217 25.5836 47.609 24.8266 47.5231 23.9313L50.5933 24.254C50.6343 24.5325 50.7688 24.7588 50.9966 24.933C51.2282 25.1038 51.5195 25.2076 51.8706 25.2445C52.1545 25.2744 52.3879 25.2501 52.571 25.1717C52.7577 25.0936 52.8529 24.9647 52.8567 24.7848C52.8529 24.6192 52.7708 24.4791 52.6102 24.3646C52.4533 24.2504 52.2068 24.1457 51.8706 24.0502L50.3467 23.6197C49.469 23.3734 48.8116 23.0114 48.3746 22.5336C47.9376 22.0558 47.721 21.4772 47.7248 20.7978C47.721 20.1965 47.8779 19.7041 48.1954 19.3206C48.5166 18.9337 48.9741 18.6626 49.568 18.5072C50.1656 18.3484 50.8734 18.312 51.6914 18.398C52.9351 18.5287 53.9156 18.8909 54.6327 19.4845C55.3535 20.0786 55.7327 20.8357 55.77 21.756Z" fill="white"/>
<path d="M55.77 21.756L52.9239 21.4569C52.909 21.2788 52.8473 21.1202 52.739 20.9812C52.6307 20.8421 52.4906 20.7297 52.3188 20.6441C52.1508 20.555 51.964 20.4997 51.7586 20.4781C51.4934 20.4503 51.2656 20.4751 51.0751 20.5528C50.8846 20.6304 50.7912 20.7595 50.7949 20.9402C50.7912 21.0675 50.8454 21.1915 50.9574 21.3122C51.0732 21.4333 51.2954 21.5411 51.6241 21.6358L53.3721 22.135C54.2536 22.3891 54.9091 22.7303 55.3386 23.1585C55.7719 23.5833 55.9904 24.1152 55.9941 24.754C55.9904 25.3696 55.8074 25.8855 55.4451 26.3018C55.0865 26.7148 54.5953 27.0125 53.9716 27.1948C53.3516 27.3737 52.6438 27.4214 51.8482 27.3378C50.5335 27.1996 49.5045 26.821 48.7612 26.2021C48.0217 25.5836 47.609 24.8266 47.5231 23.9313L50.5933 24.254C50.6343 24.5325 50.7688 24.7588 50.9966 24.933C51.2282 25.1038 51.5195 25.2076 51.8706 25.2445C52.1545 25.2744 52.3879 25.2501 52.571 25.1717C52.7577 25.0936 52.8529 24.9647 52.8567 24.7848C52.8529 24.6192 52.7708 24.4791 52.6102 24.3646C52.4533 24.2504 52.2068 24.1457 51.8706 24.0502L50.3467 23.6197C49.469 23.3734 48.8116 23.0114 48.3746 22.5336C47.9376 22.0558 47.721 21.4772 47.7248 20.7978C47.721 20.1965 47.8779 19.7041 48.1954 19.3206C48.5166 18.9337 48.9741 18.6626 49.568 18.5072C50.1656 18.3484 50.8734 18.312 51.6914 18.398C52.9351 18.5287 53.9156 18.8909 54.6327 19.4845C55.3535 20.0786 55.7327 20.8357 55.77 21.756Z" fill="url(#paint6_linear_208_10860)"/>
<path d="M18.2293 11.4403L42.4616 13.9872V16.5233L18.2293 13.9764V11.4403Z" fill="white"/>
<path d="M18.2293 11.4403L42.4616 13.9872V16.5233L18.2293 13.9764V11.4403Z" fill="url(#paint7_linear_208_10860)"/>
<path d="M13.1732 24.3159L32.524 26.3497V28.8859L13.1732 26.852V24.3159Z" fill="white"/>
<path d="M13.1732 24.3159L32.524 26.3497V28.8859L13.1732 26.852V24.3159Z" fill="url(#paint8_linear_208_10860)"/>
<path d="M46.3702 6.71343V14.3277L43.2712 14.002V6.38771L46.3702 6.71343Z" fill="white"/>
<path d="M46.3702 6.71343V14.3277L43.2712 14.002V6.38771L46.3702 6.71343Z" fill="url(#paint9_linear_208_10860)"/>
<path d="M44.8181 4.81658L38.877 10.1659L40.4969 11.965L44.8181 8.07416L49.1393 12.8733L50.7591 11.4148L44.8181 4.81658Z" fill="white"/>
<path d="M44.8181 4.81658L38.877 10.1659L40.4969 11.965L44.8181 8.07416L49.1393 12.8733L50.7591 11.4148L44.8181 4.81658Z" fill="url(#paint10_linear_208_10860)"/>
<defs>
<linearGradient id="paint0_linear_208_10860" x1="29.7593" y1="3.23383" x2="26.198" y2="37.1167" gradientUnits="userSpaceOnUse">
<stop stop-color="#6594E7"/>
<stop offset="0.155" stop-color="#A7C1F1"/>
<stop offset="0.31" stop-color="#CCE1F7"/>
<stop offset="0.46" stop-color="#7CC9EB"/>
<stop offset="0.63" stop-color="#58A1E5"/>
<stop offset="0.825" stop-color="#8664E7"/>
<stop offset="0.99" stop-color="#471587"/>
</linearGradient>
<linearGradient id="paint1_linear_208_10860" x1="29.7593" y1="3.23383" x2="26.198" y2="37.1167" gradientUnits="userSpaceOnUse">
<stop stop-color="#6594E7"/>
<stop offset="0.155" stop-color="#A7C1F1"/>
<stop offset="0.31" stop-color="#CCE1F7"/>
<stop offset="0.46" stop-color="#7CC9EB"/>
<stop offset="0.63" stop-color="#58A1E5"/>
<stop offset="0.825" stop-color="#8664E7"/>
<stop offset="0.99" stop-color="#471587"/>
</linearGradient>
<linearGradient id="paint2_linear_208_10860" x1="29.7593" y1="3.23383" x2="26.198" y2="37.1167" gradientUnits="userSpaceOnUse">
<stop stop-color="#6594E7"/>
<stop offset="0.155" stop-color="#A7C1F1"/>
<stop offset="0.31" stop-color="#CCE1F7"/>
<stop offset="0.46" stop-color="#7CC9EB"/>
<stop offset="0.63" stop-color="#58A1E5"/>
<stop offset="0.825" stop-color="#8664E7"/>
<stop offset="0.99" stop-color="#471587"/>
</linearGradient>
<linearGradient id="paint3_linear_208_10860" x1="29.7593" y1="3.23383" x2="26.198" y2="37.1167" gradientUnits="userSpaceOnUse">
<stop stop-color="#6594E7"/>
<stop offset="0.155" stop-color="#A7C1F1"/>
<stop offset="0.31" stop-color="#CCE1F7"/>
<stop offset="0.46" stop-color="#7CC9EB"/>
<stop offset="0.63" stop-color="#58A1E5"/>
<stop offset="0.825" stop-color="#8664E7"/>
<stop offset="0.99" stop-color="#471587"/>
</linearGradient>
<linearGradient id="paint4_linear_208_10860" x1="29.7593" y1="3.23383" x2="26.198" y2="37.1167" gradientUnits="userSpaceOnUse">
<stop stop-color="#6594E7"/>
<stop offset="0.155" stop-color="#A7C1F1"/>
<stop offset="0.31" stop-color="#CCE1F7"/>
<stop offset="0.46" stop-color="#7CC9EB"/>
<stop offset="0.63" stop-color="#58A1E5"/>
<stop offset="0.825" stop-color="#8664E7"/>
<stop offset="0.99" stop-color="#471587"/>
</linearGradient>
<linearGradient id="paint5_linear_208_10860" x1="29.7593" y1="3.23383" x2="26.198" y2="37.1167" gradientUnits="userSpaceOnUse">
<stop stop-color="#6594E7"/>
<stop offset="0.155" stop-color="#A7C1F1"/>
<stop offset="0.31" stop-color="#CCE1F7"/>
<stop offset="0.46" stop-color="#7CC9EB"/>
<stop offset="0.63" stop-color="#58A1E5"/>
<stop offset="0.825" stop-color="#8664E7"/>
<stop offset="0.99" stop-color="#471587"/>
</linearGradient>
<linearGradient id="paint6_linear_208_10860" x1="29.7593" y1="3.23383" x2="26.198" y2="37.1167" gradientUnits="userSpaceOnUse">
<stop stop-color="#6594E7"/>
<stop offset="0.155" stop-color="#A7C1F1"/>
<stop offset="0.31" stop-color="#CCE1F7"/>
<stop offset="0.46" stop-color="#7CC9EB"/>
<stop offset="0.63" stop-color="#58A1E5"/>
<stop offset="0.825" stop-color="#8664E7"/>
<stop offset="0.99" stop-color="#471587"/>
</linearGradient>
<linearGradient id="paint7_linear_208_10860" x1="29.7593" y1="3.23383" x2="26.198" y2="37.1167" gradientUnits="userSpaceOnUse">
<stop stop-color="#6594E7"/>
<stop offset="0.155" stop-color="#A7C1F1"/>
<stop offset="0.31" stop-color="#CCE1F7"/>
<stop offset="0.46" stop-color="#7CC9EB"/>
<stop offset="0.63" stop-color="#58A1E5"/>
<stop offset="0.825" stop-color="#8664E7"/>
<stop offset="0.99" stop-color="#471587"/>
</linearGradient>
<linearGradient id="paint8_linear_208_10860" x1="29.7593" y1="3.23383" x2="26.198" y2="37.1167" gradientUnits="userSpaceOnUse">
<stop stop-color="#6594E7"/>
<stop offset="0.155" stop-color="#A7C1F1"/>
<stop offset="0.31" stop-color="#CCE1F7"/>
<stop offset="0.46" stop-color="#7CC9EB"/>
<stop offset="0.63" stop-color="#58A1E5"/>
<stop offset="0.825" stop-color="#8664E7"/>
<stop offset="0.99" stop-color="#471587"/>
</linearGradient>
<linearGradient id="paint9_linear_208_10860" x1="29.7593" y1="3.23383" x2="26.198" y2="37.1167" gradientUnits="userSpaceOnUse">
<stop stop-color="#6594E7"/>
<stop offset="0.155" stop-color="#A7C1F1"/>
<stop offset="0.31" stop-color="#CCE1F7"/>
<stop offset="0.46" stop-color="#7CC9EB"/>
<stop offset="0.63" stop-color="#58A1E5"/>
<stop offset="0.825" stop-color="#8664E7"/>
<stop offset="0.99" stop-color="#471587"/>
</linearGradient>
<linearGradient id="paint10_linear_208_10860" x1="29.7593" y1="3.23383" x2="26.198" y2="37.1167" gradientUnits="userSpaceOnUse">
<stop stop-color="#6594E7"/>
<stop offset="0.155" stop-color="#A7C1F1"/>
<stop offset="0.31" stop-color="#CCE1F7"/>
<stop offset="0.46" stop-color="#7CC9EB"/>
<stop offset="0.63" stop-color="#58A1E5"/>
<stop offset="0.825" stop-color="#8664E7"/>
<stop offset="0.99" stop-color="#471587"/>
</linearGradient>
</defs>
</svg>
