<svg width="45" height="56" viewBox="0 0 45 56" fill="none" xmlns="http://www.w3.org/2000/svg">
<path d="M22.6002 0C26.3132 0 29.8742 1.475 32.4997 4.1005C35.1252 6.72601 36.6002 10.287 36.6002 14V22.4C38.828 22.4 40.9646 23.285 42.5399 24.8603C44.1152 26.4356 45.0002 28.5722 45.0002 30.8V47.6C45.0002 49.8278 44.1152 51.9644 42.5399 53.5397C40.9646 55.115 38.828 56 36.6002 56H8.60019C6.37238 56 4.2358 55.115 2.6605 53.5397C1.08519 51.9644 0.200195 49.8278 0.200195 47.6V30.8C0.200195 28.5722 1.08519 26.4356 2.6605 24.8603C4.2358 23.285 6.37238 22.4 8.60019 22.4V14C8.60019 10.287 10.0752 6.72601 12.7007 4.1005C15.3262 1.475 18.8872 0 22.6002 0ZM22.6002 33.6C21.1874 33.5996 19.8266 34.1331 18.7907 35.0938C17.7547 36.0544 17.1202 37.3712 17.0142 38.78L17.0002 39.2C17.0002 40.3076 17.3286 41.3903 17.944 42.3112C18.5593 43.2321 19.4339 43.9499 20.4572 44.3737C21.4804 44.7976 22.6064 44.9085 23.6927 44.6924C24.779 44.4763 25.7768 43.943 26.56 43.1598C27.3432 42.3766 27.8765 41.3788 28.0926 40.2925C28.3087 39.2062 28.1978 38.0802 27.7739 37.057C27.3501 36.0337 26.6323 35.1591 25.7114 34.5438C24.7905 33.9284 23.7078 33.6 22.6002 33.6ZM22.6002 5.6C20.3724 5.6 18.2358 6.485 16.6605 8.0603C15.0852 9.63561 14.2002 11.7722 14.2002 14V22.4H31.0002V14C31.0002 11.7722 30.1152 9.63561 28.5399 8.0603C26.9646 6.485 24.828 5.6 22.6002 5.6Z" fill="#F8F8F8" fill-opacity="0.11"/>
</svg>
