<svg width="10" height="16" viewBox="0 0 10 16" fill="none" xmlns="http://www.w3.org/2000/svg">
<path fill-rule="evenodd" clip-rule="evenodd" d="M1.10109 9.05087C0.820194 8.76962 0.662415 8.38837 0.662415 7.99087C0.662415 7.59337 0.820194 7.21212 1.10109 6.93087L6.75709 1.27287C7.03849 0.991605 7.42009 0.833647 7.81795 0.83374C8.01495 0.833787 8.21001 0.872634 8.392 0.948066C8.57398 1.0235 8.73933 1.13403 8.87859 1.27337C9.01786 1.4127 9.12832 1.5781 9.20367 1.76012C9.27901 1.94214 9.31777 2.13722 9.31772 2.33422C9.31768 2.53122 9.27883 2.72628 9.2034 2.90827C9.12796 3.09025 9.01743 3.2556 8.87809 3.39487L4.28309 7.99087L8.8791 12.5869C9.02242 12.7252 9.13678 12.8906 9.21547 13.0736C9.29417 13.2566 9.33564 13.4534 9.33747 13.6525C9.33929 13.8517 9.30143 14.0493 9.2261 14.2336C9.15076 14.418 9.03946 14.5855 8.89869 14.7264C8.75792 14.8673 8.59049 14.9788 8.40618 15.0543C8.22188 15.1298 8.02438 15.1679 7.82521 15.1662C7.62604 15.1646 7.42919 15.1233 7.24615 15.0448C7.0631 14.9663 6.89753 14.8521 6.75909 14.7089L1.09909 9.05087H1.10109Z" fill="#F8F8F8"/>
</svg>
