<svg width="10" height="16" viewBox="0 0 10 16" fill="none" xmlns="http://www.w3.org/2000/svg">
<path fill-rule="evenodd" clip-rule="evenodd" d="M8.89884 9.05087C9.17975 8.76962 9.33752 8.38837 9.33752 7.99087C9.33752 7.59337 9.17975 7.21212 8.89884 6.93087L3.24284 1.27287C2.96145 0.991605 2.57985 0.833647 2.18199 0.83374C1.98499 0.833787 1.78993 0.872634 1.60794 0.948066C1.42596 1.0235 1.26061 1.13403 1.12134 1.27337C0.982078 1.4127 0.871618 1.5781 0.796272 1.76012C0.720926 1.94214 0.68217 2.13722 0.682217 2.33422C0.682263 2.53122 0.721112 2.72628 0.796543 2.90827C0.871974 3.09025 0.982512 3.2556 1.12184 3.39487L5.71684 7.99087L1.12084 12.5869C0.977515 12.7252 0.863164 12.8906 0.784466 13.0736C0.705768 13.2566 0.664298 13.4534 0.662474 13.6525C0.660649 13.8517 0.698509 14.0493 0.773844 14.2336C0.849178 14.418 0.960478 14.5855 1.10125 14.7264C1.24202 14.8673 1.40945 14.9788 1.59375 15.0543C1.77806 15.1298 1.97556 15.1679 2.17473 15.1662C2.3739 15.1646 2.57075 15.1233 2.75379 15.0448C2.93684 14.9663 3.10241 14.8521 3.24084 14.7089L8.90084 9.05087H8.89884Z" fill="#F8F8F8"/>
</svg>
