<svg xmlns="http://www.w3.org/2000/svg" width="56" height="44" fill="none">
  <path stroke="#fff" stroke-width=".1" d="M2.2 9.6 1 11v15.4l4.2.4 1.2-1.4 4.2.2v1.8l1 .1-1 1.1v2.6l19.4 2 .7-.9v3.6c.3 3.7 4.2 4.6 5.7 2.2v1.4l3 .3 1.2-1.3h.3v4.8l3 .2 1.3-1.3v-.9l.6-.7v-.8"/>
  <path fill="#120D57" d="M2.3 23.5V8.1l4.2.4v6l5.5.6v-6l4.2.4V25l-4.2-.5v-6l-5.5-.6v6l-4.2-.4Zm35.3 9.4v-4.8l3 .3V37l-2.8-.3V35h-.1l-.4.8a2 2 0 0 1-.6.4c-.5.3-1 .3-1.6.3a3.2 3.2 0 0 1-2.6-1.8A4 4 0 0 1 32 33v-5.5l3 .3v4.8c0 .5.2.8.4 1 .2.3.5.5.9.5h.6a1 1 0 0 0 .5-.5l.1-.7Zm4.6 7.4V28.6l3 .3v1.5h.1a2.2 2.2 0 0 1 .5-.7c.2-.3.5-.4.8-.5.3-.2.7-.2 1.1-.2.6.1 1 .3 1.6.7.5.3 1 .8 1.2 1.5.4.7.5 1.5.5 2.6 0 1-.1 1.8-.4 2.4l-.5.7c-.2.3-.5.5-.8.6-.5.3-1 .4-1.6.3a2.9 2.9 0 0 1-2.4-1.8v4.6l-3-.3Zm3-7.1c0 .4 0 .7.2 1 0 .4.2.6.4.8.2.2.5.3.7.3a1 1 0 0 0 1-.3l.2-.5.2-1c0-.5 0-.8-.2-1.2 0-.3-.2-.5-.4-.7-.2-.2-.5-.3-.8-.3a1 1 0 0 0-.9.3l-.2.5c-.2.3-.2.6-.2 1Zm-23.5-7.5c-.9-.1-1.7-.4-2.3-.8-.7-.4-1.2-1-1.6-1.7a6 6 0 0 1-.5-2.4c0-1 .2-1.7.5-2.3l.4-.6a4.3 4.3 0 0 1 3.4-1.1c.7 0 1.3.2 1.8.5a4.3 4.3 0 0 1 2.2 2.5c.3.5.4 1.2.4 1.9v.7l-7.7-.8v-1.7l4.8.5c0-.3 0-.5-.2-.7l-.5-.5a1.6 1.6 0 0 0-1.4-.1 1.1 1.1 0 0 0-.5.3l-.2.7v1.8l.2.8.5.6.8.2h.6l.4-.2a1 1 0 0 0 .3-.4l2.9.3c-.1.6-.4 1-.7 1.5-.4.4-.9.7-1.5.9-.6.1-1.3.2-2 .1Zm7.9.8a4 4 0 0 1-1.4-.4 2 2 0 0 1-1-1c-.3-.4-.4-.8-.4-1.4 0-.5 0-.9.3-1.2a2 2 0 0 1 .6-.8c.3-.1.6-.3 1-.3l1.3-.1h1l.7-.2.2-.4-.3-.6-.7-.2-.7.1-.1.1-.2.5-2.9-.3a2.7 2.7 0 0 1 .7-1.6c.3-.3.7-.6 1.2-.8.5-.2 1.2-.2 2-.1.7 0 1.3.2 1.7.4.5.1 1 .4 1.3.7l.8 1c.2.3.3.7.3 1.1v6l-3-.4v-1.2c0 .2-.2.3-.3.4a2 2 0 0 1-1.2.7h-1Zm1-1.9h.7a1.1 1.1 0 0 0 .5-.4l.2-.6v-.8a3.2 3.2 0 0 1-.6.2 5 5 0 0 1-.6 0l-.6.1a.8.8 0 0 0-.4.3v.4c0 .3 0 .4.2.6l.6.2Zm9 2.9c-.6 0-1.1-.2-1.6-.6a4 4 0 0 1-1.3-1.6c-.3-.7-.4-1.6-.4-2.6s.1-1.8.4-2.5l.5-.6.8-.7a3 3 0 0 1 4 1.6v-4.4l3.2.4V28l-3-.3v-1.4H42a2.1 2.1 0 0 1-1.3 1.2h-1Zm1.2-2.2a1 1 0 0 0 1-.4l.2-.5.2-1-.2-1.2-.5-.7a1 1 0 0 0-.7-.3 1 1 0 0 0-1 .3l-.2.5-.2 1 .2 1.2c.1.3.3.6.5.7l.7.4Zm13.8-2.1-2.9-.3c0-.2 0-.4-.2-.5 0-.2-.2-.3-.4-.4l-.5-.1h-.7l-.2.2-.1.2c0 .2 0 .3.2.4l.6.3 1.8.5c.9.3 1.5.6 2 1 .4.5.6 1 .6 1.7 0 .6-.2 1-.6 1.5a3 3 0 0 1-1.4.9c-.6.2-1.4.2-2.2.1a5.6 5.6 0 0 1-3-1.1 3.3 3.3 0 0 1-1.3-2.3l3 .4.5.6c.2.2.5.3.9.3h.7l.2-.2v-.2c0-.2 0-.3-.2-.4l-.7-.4L49 25c-.8-.2-1.5-.6-2-1-.4-.5-.6-1.1-.6-1.8 0-.6.2-1.1.5-1.5.3-.4.8-.6 1.4-.8a6 6 0 0 1 2-.1c1.3.1 2.3.5 3 1a3 3 0 0 1 1.2 2.4Z"/>
  <path fill="#120D57" d="m17 12.8 24.3 2.6v2.5L17 15.4v-2.6Zm-5 12.9 19.3 2v2.6l-19.3-2v-2.6ZM45.2 8.1v7.6l-3.1-.3V7.8l3 .3Z"/>
  <path fill="#120D57" d="m43.6 6.2-6 5.4 1.7 1.8 4.3-4 4.3 4.9 1.7-1.5-6-6.6Z"/>
  <path fill="#120D57" d="m44.8 4.8 6 6.6-1.2 1.4-6-6.6 1.2-1.4Z"/>
  <path fill="#120D57" d="m46.4 6.7-3.1-.3L42 7.8l3 .3 1.3-1.4Zm4.4 4.7L49 13l-1 1.3 1.7-1.5 1.2-1.4Z"/>
  <path fill="#120D57" d="M49.1 12.9 44.8 8l-1.2 1.4 4.3 4.8 1.2-1.4Z"/>
  <path fill="#120D57" d="M46.4 14.3V6.7l-1.2 1.4v7.6l1.2-1.4Zm-7.5-4.1 6-5.4-1.3 1.4-6 5.4 1.3-1.4Z"/>
  <path fill="#120D57" d="M43.3 6.4V14L42 15.4V7.8l1.2-1.4Zm12.5 15.4a3 3 0 0 0-1.2-2.3l-1.2 1.4a3 3 0 0 1 1.2 2.3l1.2-1.4Z"/>
  <path fill="#120D57" d="M54.6 19.5c-.7-.6-1.7-1-2.9-1l-1.2 1.3c1.2.1 2.2.5 3 1l1.1-1.3ZM44.8 8l-4.3 4-1.2 1.4 4.3-4 1.2-1.3ZM53 21.5l2.8.3-1.2 1.4-2.9-.3 1.2-1.4Zm-1.3-3.1a6 6 0 0 0-2.1.1L48.4 20a6 6 0 0 1 2-.1l1.3-1.4Zm.6 2.3c.2 0 .3.2.4.3l-1.2 1.4c0-.2-.2-.3-.4-.4l1.2-1.3Zm-9-6.7 3 .3-1.1 1.4-3.1-.3 1.2-1.4Z"/>
  <path fill="#120D57" d="M52.7 21c.2.1.2.3.2.5l-1.2 1.4c0-.2 0-.4-.2-.5l1.2-1.4Zm-.9-.5c.2 0 .4 0 .5.2L51.1 22l-.5-.1 1.2-1.4Zm3.5 2.7c-.4-.5-1-.8-2-1l-1.1 1.3c.9.3 1.5.6 2 1l1.1-1.3Z"/>
  <path fill="#120D57" d="M56 24.8c0-.7-.2-1.2-.7-1.6l-1.2 1.4c.5.4.7 1 .7 1.6l1.2-1.4Zm-5-4.2.8-.1-1.2 1.4h-.7l1.2-1.3ZM46.4 15l-3.1-.2-1.2 1.3 3 .4 1.3-1.4Zm7 7.1-1.8-.5-1.2 1.4 1.8.5 1.2-1.4Z"/>
  <path fill="#120D57" d="m50.9 20.7.2-.1-1.2 1.4h-.2l1.2-1.3Zm-2.7-1.4c.3-.4.8-.6 1.4-.8L48.4 20c-.6.2-1 .4-1.3.7l-.1.1 1.2-1.4ZM40.5 12l-1.6-1.8-1.2 1.4 1.6 1.8 1.2-1.4Z"/>
  <path fill="#120D57" d="M50.8 21v-.3l-1 1.3-.1.2 1.2-1.3Zm.8.6c-.3 0-.5-.2-.6-.3l-1.2 1.4.6.3 1.2-1.4Z"/>
  <path fill="#120D57" d="M51 21.3a.5.5 0 0 1-.2-.3l-1.2 1.3c0 .2 0 .3.2.4l1.2-1.4Zm4.5 5c.3-.4.5-1 .5-1.5l-1.2 1.4c0 .6-.2 1-.6 1.5l1.3-1.4Zm-13-9.8V14l-1.2 1.4v2.5l1.2-1.4Zm5.7 2.8c-.3.4-.5 1-.5 1.5l-1.2 1.4c0-.6.2-1.1.5-1.5l1.2-1.4Zm4.4 5.1c.2 0 .3.2.3.4l-1.2 1.4c0-.2-.1-.3-.3-.4l1.2-1.4Z"/>
  <path fill="#120D57" d="m51.9 24 .7.4-1.2 1.4-.7-.4 1.2-1.3Zm1 .8-.1.3-1.2 1.3v-.2l1.3-1.4Zm1.1 2.4a3 3 0 0 0 1.4-.9l-1.2 1.4a3 3 0 0 1-1.4.9l1.2-1.4ZM43.3 14.8V19l-1.2 1.4V16l1.2-1.3Z"/>
  <path fill="#120D57" d="m52.8 25-.2.2-1.2 1.4.2-.2 1.2-1.3Zm-2.4-1.4 1.5.5-1.2 1.3L49 25l1.3-1.4Z"/>
  <path fill="#120D57" d="M52.6 25.2h-.7l-1.2 1.4h.7l1.2-1.4Zm-4.9-4.4c0 .7.2 1.3.7 1.7L47.2 24c-.5-.4-.7-1-.7-1.7l1.2-1.4Z"/>
  <path fill="#120D57" d="M48.4 22.5c.4.5 1 .9 2 1.1L49 25c-.8-.2-1.5-.6-2-1l1.3-1.5Zm3.5 2.8c-.4 0-.7-.2-.9-.4l-1.2 1.4c.2.2.5.3.9.3l1.2-1.3Z"/>
  <path fill="#120D57" d="M51 25a1 1 0 0 1-.4-.7l-1.2 1.4c0 .2.2.5.4.6L51 25Zm-4.6 1.6V15.1l-1.2 1.4V28l1.2-1.4Zm-3.6-8.3-.8-.7-1.3 1.4.9.7 1.2-1.4Zm9.1 9h2l-1.1 1.3c-.6.2-1.4.2-2.2.1l1.3-1.4Z"/>
  <path fill="#120D57" d="M43.3 19.1a3 3 0 0 0-.5-.8l-1.2 1.4.4.8 1.3-1.4Zm7.3 5.2-3-.4-1.3 1.4 3 .4 1.3-1.4ZM42 17.6c-.4-.2-.7-.3-1.2-.3l-1.2 1.4c.5 0 .8.1 1.1.3l1.3-1.4Zm1.3 1.5L42 20.5l1.3-1.4Z"/>
  <path fill="#120D57" d="M40.8 17.3a3 3 0 0 0-1.6.3L38 18.9a3 3 0 0 1 1.6-.2l1.2-1.4Zm8 8.9c.7.6 1.7 1 3 1.1l-1.2 1.4a5.6 5.6 0 0 1-3-1.1l1.2-1.4ZM42 19.8c.3 0 .5.1.7.3l-1.2 1.4a1 1 0 0 0-.7-.3l1.2-1.4Z"/>
  <path fill="#120D57" d="M42.7 20.1c.2.2.4.4.5.8L42 22.2l-.5-.7 1.2-1.4Zm4.8 3.9c.1.8.5 1.6 1.3 2.2l-1.2 1.4a3.3 3.3 0 0 1-1.3-2.3l1.2-1.4Zm-6.2-4c.2-.2.4-.3.7-.2l-1.2 1.4a1 1 0 0 0-.7.1l1.2-1.3Z"/>
  <path fill="#120D57" d="m43.2 20.9.2 1-1.2 1.5-.2-1.2 1.2-1.3Zm-4-3.3c-.3.1-.6.3-.8.6l-1.2 1.4.8-.7 1.2-1.3Zm1.8 2.5.3-.1-1.2 1.3-.2.2 1.2-1.4Zm10.7 9.7a3 3 0 0 0-1.2-1.5l-1.2 1.4c.5.3 1 .8 1.2 1.5l1.2-1.4Z"/>
  <path fill="#120D57" d="M50.5 28.3c-.5-.4-1-.6-1.6-.6L47.7 29c.6.1 1 .3 1.6.7l1.2-1.4Zm-9.7-7.7c0-.2.2-.4.3-.5l-1.2 1.4-.3.5 1.2-1.4Zm2.6 1.4c0 .4 0 .8-.2 1L42 24.4l.2-1 1.2-1.4Zm-5-3.8-.4.7-1.3 1.3.5-.6 1.2-1.4Zm10.5 9.5h-1.1l-1.2 1.5c.3-.2.7-.2 1.1-.2l1.2-1.3Zm-8.2-6 .1-1-1.2 1.3-.2 1 1.3-1.3Z"/>
  <path fill="#120D57" d="M43.2 23c0 .2-.2.4-.3.5L41.7 25l.3-.5 1.2-1.4Zm9 9.4a6 6 0 0 0-.5-2.6l-1.2 1.4c.4.7.5 1.5.5 2.6l1.2-1.4ZM42.5 14l-24.3-2.5-1.2 1.3 24.3 2.6 1.2-1.4Z"/>
  <path fill="#120D57" d="m43 23.5-.3.2-1.2 1.4.2-.2 1.2-1.4Zm4.8 4.3a2 2 0 0 0-.8.5l-1.2 1.4c.2-.3.5-.4.8-.5l1.2-1.4Zm-7-5-.1-1.1-1.3 1.4.2 1.1 1.2-1.4Z"/>
  <path fill="#120D57" d="M42.7 23.7a1 1 0 0 1-.7.2l-1.2 1.4c.3 0 .5 0 .7-.2l1.2-1.4ZM36 18.5a3 3 0 0 0-.8-1L34 18.9l.8 1 1.2-1.4Z"/>
  <path fill="#120D57" d="M35.2 17.5c-.3-.3-.8-.5-1.2-.7l-1.3 1.4c.5.1 1 .4 1.3.7l1.2-1.4Zm8.1 7.4-1.2 1.4 1.2-1.4Zm-5.3-6c-.4.6-.5 1.4-.5 2.5l-1.2 1.3c0-1 .1-1.8.4-2.5L38 19Zm5.3 7.4 3 .3-1.1 1.4-3-.3 1.1-1.4Zm3.6 2.1.1-.1-1.2 1.4h-.1l1.2-1.3Zm-5.6-4.8-.5-.8-1.2 1.4c.1.3.3.6.5.7l1.2-1.3Z"/>
  <path fill="#120D57" d="M42 23.9c-.3 0-.5-.2-.7-.3L40 24.9l.7.4 1.2-1.4Zm-5.7-4.3a2 2 0 0 0-.3-1.1l-1.2 1.4c.2.3.3.7.3 1.1l1.2-1.4Zm6.6 5.8.4-.5-1.3 1.4c0 .2-.2.4-.3.5l1.2-1.4ZM34 16.8c-.5-.2-1-.4-1.7-.4l-1.2 1.4c.6 0 1.2.2 1.6.4l1.3-1.4ZM46.4 29v-1.5L45.2 29v1.5l1.2-1.4Z"/>
  <path fill="#120D57" d="M43.3 24.9v1.4l-1.2 1.4v-1.4l1.2-1.4Zm3.6 3.5-.4.6-1.2 1.4.4-.6 1.2-1.4Zm.9 1.5c.2 0 .5.1.7.3l-1.2 1.4c-.2-.2-.5-.3-.8-.3l1.3-1.4Z"/>
  <path fill="#120D57" d="m48.5 30.2.4.8-1.2 1.3c0-.3-.2-.5-.4-.7l1.2-1.4Zm-2.1-2.7-3-.3-1.2 1.4 3 .3 1.2-1.4Zm-3.5-2.1-1.2 1.4-.2.2 1.2-1.4.2-.2Zm8.9 9.4c.3-.6.4-1.4.4-2.4L51 33.8c0 1-.1 1.8-.4 2.4l1.2-1.4ZM46.5 29l-1.3 1.4h.1l1.2-1.4Zm.5 1 .8-.1-1.3 1.4a1 1 0 0 0-.7.2L47 30ZM18.2 14l24.3 2.5-1.2 1.4L17 15.4l1.2-1.4ZM49 31v1l-1 1.5c0-.4 0-.7-.2-1L49 31Z"/>
  <path fill="#120D57" d="m42 26 .7-.4-1.2 1.4-.8.5L42 26Zm-9.7-9.6c-.9-.1-1.6 0-2.1.2L29 17.9c.5-.2 1.2-.2 2-.1l1.3-1.4Zm14.5 13.8.2-.1-1.2 1.4-.2.1 1.2-1.4Zm-9.3-8.8c0 1 .1 1.8.4 2.5l-1.2 1.4c-.3-.7-.4-1.6-.4-2.6l1.2-1.3Z"/>
  <path fill="#120D57" d="m46.6 30.7.2-.5-1.2 1.4-.2.5 1.2-1.4ZM49 32v1.1l-1.3 1.4.2-1L49 32Zm-8.1-5.9h1l-1.2 1.4h-1l1.2-1.4ZM33 18.8l.2.5-1.2 1.4-.3-.6 1.2-1.3Z"/>
  <path fill="#120D57" d="m32.3 18.5.6.3-1.2 1.3-.7-.2 1.3-1.4Zm19 17 .5-.7-1.2 1.4-.5.7 1.2-1.4ZM33.2 19.3 32 20.7l1.2-1.4Zm0 0-.1.3-1.2 1.4v-.3l1.3-1.4Zm13.2 12.5c0-.4 0-.8.2-1L45.4 32c-.2.3-.2.6-.2 1l1.2-1.3Z"/>
  <path fill="#120D57" d="M31.5 18.6c.2 0 .5-.1.8 0L31 19.8l-.7.1 1.2-1.4Zm1.5 1v.1l-1.2 1.4 1.3-1.5Zm16 13.5-.4.5-1.2 1.4c.2-.1.2-.3.3-.5l1.2-1.4Zm-9.8-7.6c.5.4 1 .6 1.7.6l-1.3 1.4c-.6 0-1.1-.2-1.6-.6l1.2-1.4Zm-2.9.1v-6L35 21v6l1.2-1.4Zm1.7-1.7a4 4 0 0 0 1.2 1.6L38 26.9a4 4 0 0 1-1.3-1.6l1.2-1.4Zm-7.8-7.3a2 2 0 0 0-1.2.7l-1.2 1.4c.3-.3.7-.6 1.2-.8l1.2-1.3Z"/>
  <path fill="#120D57" d="m31.4 18.8.1-.2-1.2 1.4-.1.1 1.2-1.3Zm1.6.9-.7.2-1.2 1.4.7-.2 1.2-1.4Zm15.6 13.9-.1.2-1.2 1.4.1-.2 1.2-1.4Zm1.9 2.5c.3-.1.6-.3.8-.6L50 37c-.2.3-.5.5-.8.6l1.2-1.4Z"/>
  <path fill="#120D57" d="M31.2 19.2c0-.2 0-.3.2-.4L30.2 20l-.2.5 1.2-1.4ZM41.9 27l-3-.3-1.3 1.4 3 .3L42 27Zm4.7 5.9-.2-1.1-1.2 1.4c0 .4 0 .7.2 1l1.2-1.3Zm1.9.9a1 1 0 0 1-.7.1l-1.3 1.4.8-.1 1.2-1.4ZM29 17.3l-.1.2-1.3 1.4.2-.2 1.2-1.4Zm3.3 2.6h-1.1L30 21.3h1l1.2-1.4ZM47 33.6l-.4-.7-1.2 1.4c0 .3.2.5.4.7l1.2-1.4Z"/>
  <path fill="#120D57" d="M47.8 34c-.3 0-.6-.2-.8-.4L45.8 35c.2.2.5.3.7.3l1.3-1.4ZM33 21.5h.2L32 22.7l-.3.1 1.2-1.4Z"/>
  <path fill="#120D57" d="M33.2 21.4v.8L32 23.6v-.8l1.2-1.4Zm-.6.2h.3l-1.2 1.3h-.3l1.2-1.3Zm16.3 14.8c.6 0 1.1 0 1.6-.3l-1.2 1.4c-.5.3-1 .4-1.6.3l1.2-1.4ZM28.4 18.9l2.8.3-1.2 1.4-2.9-.3 1.3-1.4Zm.5-1.4c-.3.4-.5.9-.5 1.4L27 20.3c0-.5.2-1 .5-1.4l1.3-1.4Z"/>
  <path fill="#120D57" d="M32.3 21.6h.3L31.4 23a5 5 0 0 1-.3 0l1.2-1.4Zm-1.1-1.7h-1.3l-1.2 1.5 1.3-.1 1.2-1.4Z"/>
  <path fill="#120D57" d="M32 21.6h.3L31.1 23h-.3l1.2-1.4Zm1.2.6c0 .2 0 .4-.2.6l-1.2 1.4.2-.6 1.2-1.4Z"/>
  <path fill="#120D57" d="m31.4 21.8.6-.2-1.2 1.4-.6.1 1.2-1.3Zm1.6 1-1.3 1.5v-.1l1.3-1.4Zm14.8 13.3c.3.2.7.3 1 .3l-1.1 1.4a3 3 0 0 1-1-.3l1.1-1.4Zm-1.3-1.4L45.3 36l1.2-1.3ZM26 16.9c-.4-.4-.8-.8-1.4-1l-1.2 1.4c.6.2 1 .6 1.4 1l1.2-1.4Zm20.5 17.8.5.8-1.2 1.4-.5-.9 1.2-1.3ZM30 20c-.4 0-.8.2-1 .4l-1.3 1.3c.3-.1.6-.3 1-.3L30 20Z"/>
  <path fill="#120D57" d="m33 22.9-.5.3-1.2 1.4c.2 0 .3-.2.4-.3l1.3-1.4Zm14 12.6.8.6-1.2 1.4-.8-.6 1.2-1.4ZM17.4 8.2l-4.2-.5L12 9.1l4.2.4 1.2-1.3Zm9.5 10.2c-.2-.6-.5-1-1-1.5l-1.1 1.4c.4.4.6.9.8 1.5l1.3-1.4ZM31 22l.4-.2-1.2 1.3-.3.2L31 22Zm10.9 13.6V27l-1.2 1.4V37l1.2-1.4ZM24.6 15.9c-.5-.3-1-.5-1.7-.5l-1.2 1.4c.6 0 1.2.2 1.7.5l1.2-1.4Z"/>
  <path fill="#120D57" d="m31 22-1 1.3v.1l1-1.4Zm2.3 2-1.1 1.4H32l1.2-1.4Zm.1 1.2 2.9.4-1.2 1.3-3-.3 1.3-1.4Zm-.9-2h-.7l-1.2 1.4h.7l1.2-1.4Z"/>
  <path fill="#120D57" d="M31 22.4V22l-1.2 1.4v.4l1.1-1.4Zm12.4 4.8v11.7l-1.2 1.4V28.6l1.2-1.4Zm-4.6-.5v4.8L37.6 33v-4.8l1.2-1.4ZM33 24.4l.3-.4-1.2 1.4c0 .2-.2.3-.3.4l1.2-1.4Zm-4-4c-.2 0-.4.2-.5.3l-1.2 1.4.4-.4 1.2-1.3Zm4.4 3.6v1.2l-1.2 1.4v-1.2l1.2-1.4Z"/>
  <path fill="#120D57" d="M31.2 23a.7.7 0 0 1-.3-.6l-1.2 1.4c0 .3.1.4.3.6l1.2-1.4Z"/>
  <path fill="#120D57" d="m31.8 23.3-.6-.3-1.2 1.4.6.2 1.2-1.3Zm-4.6-3a7 7 0 0 0-.3-2l-1.3 1.5c.3.5.4 1.2.4 1.9l1.2-1.4Zm9.2 6.2-3.1-.4-1.2 1.4 3 .3 1.3-1.3Zm-3.7-1.8.3-.3-1.2 1.4a2 2 0 0 1-.3.3l1.2-1.4Zm-4.2-4a2 2 0 0 0-.2.4L27 22.5l.2-.4 1.2-1.4Zm18 18.6v-4.6L45.3 36v4.6l1.2-1.3ZM22.9 15.4a4 4 0 0 0-2.3.3l-1.2 1.4c.6-.3 1.4-.4 2.3-.3l1.2-1.4Zm-4.7-3.9V14L17 15.4v-2.6l1.2-1.3Z"/>
  <path fill="#120D57" d="M31.8 25c.4 0 .6 0 .9-.3l-1.2 1.4a2 2 0 0 1-.9.4l1.2-1.4Zm-4.6-4v-.7L26 21.7v.7l1.2-1.4Zm1.1.1c-.2.3-.3.7-.3 1.2l-1.2 1.4c0-.5 0-.9.3-1.2l1.2-1.4Zm8.1 10.2v-4.8L35 27.8v4.8l1.3-1.3ZM23.6 17.8l.5.5-1.2 1.4-.5-.5 1.2-1.4Z"/>
  <path fill="#120D57" d="M23 17.6c.2 0 .4 0 .6.2l-1.2 1.4-.7-.2 1.2-1.4Zm1.1.7.2.7-1.2 1.4c0-.3 0-.5-.2-.7l1.2-1.4Zm6.7 6.8h1l-1.2 1.4h-1l1.2-1.4Zm-8.5-7.4c.2-.1.4-.2.6-.1L21.7 19H21l1.3-1.3Zm16.5 13.8-.1.7-1.2 1.4.1-.7 1.2-1.4ZM28 22.3c0 .6.1 1 .4 1.5L27.2 25c-.3-.4-.4-.8-.4-1.4l1.2-1.4Z"/>
  <path fill="#120D57" d="M21.8 18c.1-.2.3-.3.5-.3L21 19l-.4.3 1.2-1.4Zm-1.2-2.3c-.5.2-.8.5-1.2.8L18.2 18c.3-.3.7-.6 1.2-.8l1.2-1.4Zm8.8 9c.4.2.9.4 1.4.4l-1.2 1.4a4 4 0 0 1-1.4-.4l1.2-1.4Zm9.3 7.5-.2.2-1.2 1.4.2-.2 1.2-1.4Z"/>
  <path fill="#120D57" d="m21.8 18-1.2 1.4 1.2-1.3Zm6.6 5.8c.2.4.5.7 1 .9L28.2 26a2 2 0 0 1-1-1l1.2-1.3Zm10.1 8.6-.3.2L37 34l.3-.2 1.2-1.4ZM27.2 21.8c-.1.6-.4 1-.7 1.5l-1.2 1.3c.3-.4.6-.8.7-1.4l1.2-1.4Zm-14-14.1v6L12 15.1v-6l1.2-1.4Zm14 14.1-2.9-.3-1.2 1.4 2.9.3 1.2-1.4Zm5.3 7.1v-2.5l-1.2 1.3v2.6l1.2-1.4Z"/>
  <path fill="#120D57" d="M21.6 18.7c0-.3 0-.5.2-.6l-1.3 1.3-.2.7 1.3-1.4Z"/>
  <path fill="#120D57" d="m24.3 19-4.8-.5-1.2 1.4 4.8.5 1.2-1.4Zm13.9 13.6c-.2.1-.4.2-.6.1l-1.2 1.4h.6l1.2-1.5Zm.7 1-1 1.4h-.1l1.2-1.4Zm-5.6-7.5v5.5L32.1 33v-5.5l1.2-1.4Zm3.4 6.2c-.2-.3-.3-.6-.3-1L35 32.6c0 .5.2.8.4 1l1.2-1.3Zm6.7 6.7 3 .3-1.1 1.3-3-.3 1.1-1.4Zm-24-22.5-.4.6-1.2 1.4.4-.6 1.2-1.4Z"/>
  <path fill="#120D57" d="M37.6 32.7c-.4 0-.7-.2-1-.4l-1.1 1.4c.2.2.5.4.9.4l1.2-1.4Zm1.4 2.6 2.9.3-1.2 1.4-3-.3 1.3-1.4ZM19.5 20.2l7.7.8-1.2 1.4-7.7-.8 1.2-1.4Zm19 14.2.4-.8-1.2 1.4-.4.8 1.2-1.4Z"/>
  <path fill="#120D57" d="m24.3 21.5-.1.3-1.2 1.4.1-.3 1.2-1.4ZM39 33.6v1.7l-1.2 1.4V35l1.2-1.4Zm-21.6-10V8.2l-1.2 1.3V25l1.2-1.4Zm4.2-3.1v-1.8L20.3 20v1.8l1.3-1.4Z"/>
  <path fill="#120D57" d="M24.2 21.8H24l-1.3 1.5.2-.1 1.2-1.4Z"/>
  <path fill="#120D57" d="m24 21.9-.4.2-1.2 1.4.4-.2 1.3-1.4Zm1 2.3c.6-.2 1.1-.5 1.5-.9l-1.2 1.4c-.4.4-.9.7-1.5.9l1.2-1.4Zm13 10.6.5-.4-1.2 1.4a2 2 0 0 1-.6.4l1.2-1.4Z"/>
  <path fill="#120D57" d="M23.6 22.1H23l-1.2 1.4h.6l1.2-1.4Zm-4.6-5c-.3.6-.5 1.4-.5 2.3l-1.2 1.4c0-1 .2-1.7.5-2.3L19 17ZM7.7 7.1l-4.2-.4-1.2 1.4 4.2.4 1.2-1.4Zm14 14.2-.1-.8-1.3 1.4.2.8 1.2-1.4Z"/>
  <path fill="#120D57" d="M23 22.1c-.3 0-.6 0-.8-.2L21 23.3l.8.2 1.2-1.4Zm-3.5-3.6v1.7l-1.2 1.4v-1.7l1.2-1.4Zm2.7 3.4-.5-.6-1.2 1.4.5.6 1.2-1.4ZM36.3 35c.6.2 1.1 0 1.6-.2l-1.2 1.4c-.5.3-1 .3-1.6.3l1.2-1.4Zm-3-3.4c0 .6.1 1.2.4 1.7l-1.2 1.4A4 4 0 0 1 32 33l1.2-1.4ZM23 24.3l2-.1-1.2 1.4c-.6.1-1.3.2-2 .1l1.1-1.4ZM7.7 13.2v-6L6.5 8.4v6l1.2-1.3Z"/>
  <path fill="#120D57" d="M34.7 34.5c.5.3 1 .5 1.6.6L35 36.5c-.6 0-1.2-.3-1.6-.6l1.2-1.4Z"/>
  <path fill="#120D57" d="M33.7 33.3c.2.5.6.9 1 1.2L33.5 36a3 3 0 0 1-1-1.2l1.2-1.4ZM18.5 19.4c0 1 .2 1.7.5 2.4l-1.2 1.4a6 6 0 0 1-.5-2.4l1.2-1.4Zm-5.3-5.7-5.5-.5-1.2 1.3 5.5.6 1.2-1.4Zm7.4 9.8c.6.5 1.4.7 2.3.8l-1.2 1.4c-.9-.1-1.7-.4-2.3-.8l1.2-1.4Z"/>
  <path fill="#120D57" d="M19 21.8c.4.7 1 1.3 1.6 1.7L19.4 25c-.7-.4-1.2-1-1.6-1.7l1.2-1.4Zm13.5 4.6-19.3-2-1.2 1.3 19.3 2 1.2-1.3ZM7.7 16.5l5.5.6-1.2 1.4-5.5-.6 1.2-1.4Zm5.5 10.4 19.3 2-1.2 1.4-19.3-2 1.2-1.4Z"/>
  <path fill="#120D57" d="M13.2 17.1v6L12 24.5v-6l1.2-1.4Z"/>
  <path fill="#120D57" d="m13.2 23.1 4.2.5-1.2 1.4-4.2-.5 1.2-1.4ZM3.5 6.7v15.4l-1.2 1.4V8.1l1.2-1.4Zm4.2 15.9v-6l-1.2 1.3v6l1.2-1.3Z"/>
  <path fill="#120D57" d="M13.2 24.3V27L12 28.3v-2.6l1.2-1.4Zm-9.7-2.2 4.2.5-1.2 1.3-4.2-.4 1.2-1.4Z"/>
  <path fill="#fff" d="M3.5 22.1V6.7l4.2.4v6l5.5.6v-6l4.2.4v15.5l-4.2-.5v-6l-5.5-.6v6l-4.2-.4Z"/>
  <path fill="url(#a)" d="M3.5 22.1V6.7l4.2.4v6l5.5.6v-6l4.2.4v15.5l-4.2-.5v-6l-5.5-.6v6l-4.2-.4Z"/>
  <path fill="#fff" d="M38.8 31.5v-4.8l3 .3v8.6l-2.8-.3v-1.7h-.1a2 2 0 0 1-1 1.2c-.5.3-1 .3-1.6.3a3.2 3.2 0 0 1-2.6-1.8 4 4 0 0 1-.4-1.7V26l3 .3v4.8c0 .5.2.8.4 1 .2.3.5.5.9.5h.6l.5-.5.1-.7Z"/>
  <path fill="url(#b)" d="M38.8 31.5v-4.8l3 .3v8.6l-2.8-.3v-1.7h-.1a2 2 0 0 1-1 1.2c-.5.3-1 .3-1.6.3a3.2 3.2 0 0 1-2.6-1.8 4 4 0 0 1-.4-1.7V26l3 .3v4.8c0 .5.2.8.4 1 .2.3.5.5.9.5h.6l.5-.5.1-.7Z"/>
  <path fill="#fff" d="M43.4 39V27.1l3 .3V29h.1l.5-.7c.2-.3.5-.4.8-.5.3-.2.7-.2 1.1-.2.6.1 1 .3 1.6.7.5.3 1 .8 1.2 1.5.4.7.5 1.5.5 2.6 0 1-.1 1.8-.4 2.4-.3.6-.8 1-1.3 1.3-.5.3-1 .4-1.6.3a2.9 2.9 0 0 1-2.4-1.8v4.6l-3-.3Zm3-7.2c0 .4 0 .7.2 1 0 .4.2.6.4.8.2.2.5.3.7.3l.8-.1.4-.7.2-1c0-.5 0-.8-.2-1.2 0-.3-.2-.5-.4-.7-.2-.2-.5-.3-.8-.3a1 1 0 0 0-.7.2c-.2 0-.3.3-.4.6-.2.3-.2.6-.2 1Z"/>
  <path fill="url(#c)" d="M43.4 39V27.1l3 .3V29h.1l.5-.7c.2-.3.5-.4.8-.5.3-.2.7-.2 1.1-.2.6.1 1 .3 1.6.7.5.3 1 .8 1.2 1.5.4.7.5 1.5.5 2.6 0 1-.1 1.8-.4 2.4-.3.6-.8 1-1.3 1.3-.5.3-1 .4-1.6.3a2.9 2.9 0 0 1-2.4-1.8v4.6l-3-.3Zm3-7.2c0 .4 0 .7.2 1 0 .4.2.6.4.8.2.2.5.3.7.3l.8-.1.4-.7.2-1c0-.5 0-.8-.2-1.2 0-.3-.2-.5-.4-.7-.2-.2-.5-.3-.8-.3a1 1 0 0 0-.7.2c-.2 0-.3.3-.4.6-.2.3-.2.6-.2 1Z"/>
  <path fill="#fff" d="M23 24.3c-1-.1-1.8-.4-2.4-.8-.7-.4-1.2-1-1.6-1.7a6 6 0 0 1-.5-2.4c0-1 .2-1.7.5-2.3.4-.6.9-1.1 1.6-1.4.6-.3 1.4-.4 2.3-.3.6 0 1.2.2 1.7.5a4.3 4.3 0 0 1 2.2 2.5c.3.5.4 1.2.4 1.9v.7l-7.7-.8v-1.7l4.8.5c0-.3 0-.5-.2-.7l-.5-.5a1.5 1.5 0 0 0-1.4-.1c-.2 0-.3.2-.5.3l-.2.7v1.8l.2.8.5.6.8.2h.6l.4-.2c.2-.1.3-.3.3-.4l2.9.3c-.1.6-.4 1-.7 1.5-.4.4-.9.7-1.5.9-.6.1-1.3.2-2 .1Z"/>
  <path fill="url(#d)" d="M23 24.3c-1-.1-1.8-.4-2.4-.8-.7-.4-1.2-1-1.6-1.7a6 6 0 0 1-.5-2.4c0-1 .2-1.7.5-2.3.4-.6.9-1.1 1.6-1.4.6-.3 1.4-.4 2.3-.3.6 0 1.2.2 1.7.5a4.3 4.3 0 0 1 2.2 2.5c.3.5.4 1.2.4 1.9v.7l-7.7-.8v-1.7l4.8.5c0-.3 0-.5-.2-.7l-.5-.5a1.5 1.5 0 0 0-1.4-.1c-.2 0-.3.2-.5.3l-.2.7v1.8l.2.8.5.6.8.2h.6l.4-.2c.2-.1.3-.3.3-.4l2.9.3c-.1.6-.4 1-.7 1.5-.4.4-.9.7-1.5.9-.6.1-1.3.2-2 .1Z"/>
  <path fill="#fff" d="M30.8 25.1a4 4 0 0 1-1.4-.4 2 2 0 0 1-1-1c-.3-.4-.4-.8-.4-1.4 0-.5 0-.9.3-1.2.1-.3.3-.6.6-.8.3-.1.6-.3 1-.3l1.3-.1h1.1l.7-.2.2-.4-.3-.6-.7-.2-.7.1c-.2.1-.3.3-.3.6l-2.9-.3c0-.5.3-1 .5-1.4a3 3 0 0 1 1.4-1c.5-.2 1.2-.2 2-.1.7 0 1.3.2 1.7.4.5.1 1 .4 1.3.7l.8 1c.2.3.3.7.3 1.1v6l-3-.4V24l-.6.7a2 2 0 0 1-.9.4h-1Zm1-1.9h.7l.5-.4.2-.6v-.8a3.3 3.3 0 0 1-.6.2 5 5 0 0 1-.6 0l-.6.1-.4.3v.4c0 .3 0 .4.2.6l.6.2Z"/>
  <path fill="url(#e)" d="M30.8 25.1a4 4 0 0 1-1.4-.4 2 2 0 0 1-1-1c-.3-.4-.4-.8-.4-1.4 0-.5 0-.9.3-1.2.1-.3.3-.6.6-.8.3-.1.6-.3 1-.3l1.3-.1h1.1l.7-.2.2-.4-.3-.6-.7-.2-.7.1c-.2.1-.3.3-.3.6l-2.9-.3c0-.5.3-1 .5-1.4a3 3 0 0 1 1.4-1c.5-.2 1.2-.2 2-.1.7 0 1.3.2 1.7.4.5.1 1 .4 1.3.7l.8 1c.2.3.3.7.3 1.1v6l-3-.4V24l-.6.7a2 2 0 0 1-.9.4h-1Zm1-1.9h.7l.5-.4.2-.6v-.8a3.3 3.3 0 0 1-.6.2 5 5 0 0 1-.6 0l-.6.1-.4.3v.4c0 .3 0 .4.2.6l.6.2Z"/>
  <path fill="#fff" d="M40.9 26.1c-.7 0-1.2-.2-1.7-.6a4 4 0 0 1-1.3-1.6c-.3-.7-.4-1.6-.4-2.6s.1-1.8.4-2.5c.4-.6.8-1 1.3-1.3a3 3 0 0 1 1.6-.2 2.8 2.8 0 0 1 2.4 1.8v-4.4l3.2.4v11.5l-3-.3v-1.4h-.2A2.1 2.1 0 0 1 42 26h-1Zm1-2.2c.4 0 .6 0 .8-.2l.5-.7.2-1-.2-1.2-.5-.7a1 1 0 0 0-.7-.3 1 1 0 0 0-.7.1l-.5.7-.2 1 .2 1.2c.1.3.3.6.5.7l.7.4Z"/>
  <path fill="url(#f)" d="M40.9 26.1c-.7 0-1.2-.2-1.7-.6a4 4 0 0 1-1.3-1.6c-.3-.7-.4-1.6-.4-2.6s.1-1.8.4-2.5c.4-.6.8-1 1.3-1.3a3 3 0 0 1 1.6-.2 2.8 2.8 0 0 1 2.4 1.8v-4.4l3.2.4v11.5l-3-.3v-1.4h-.2A2.1 2.1 0 0 1 42 26h-1Zm1-2.2c.4 0 .6 0 .8-.2l.5-.7.2-1-.2-1.2-.5-.7a1 1 0 0 0-.7-.3 1 1 0 0 0-.7.1l-.5.7-.2 1 .2 1.2c.1.3.3.6.5.7l.7.4Z"/>
  <path fill="#fff" d="m55.8 21.8-2.9-.3c0-.2 0-.4-.2-.5 0-.2-.2-.3-.4-.4l-.5-.1H51c-.2.1-.3.3-.3.4 0 .2 0 .3.2.4l.6.3 1.8.5c.9.3 1.5.6 2 1 .4.5.6 1 .6 1.7 0 .6-.2 1-.6 1.5a3 3 0 0 1-1.4.9c-.6.2-1.4.2-2.2.1a5.6 5.6 0 0 1-3-1.1 3.3 3.3 0 0 1-1.3-2.3l3 .4.5.6c.2.2.5.3.9.3h.7c.2-.1.3-.2.3-.4s-.1-.3-.3-.4c-.1-.1-.4-.3-.7-.3l-1.6-.5c-.8-.2-1.5-.6-2-1-.4-.5-.6-1.1-.6-1.8 0-.6.2-1.1.5-1.5.3-.4.8-.6 1.4-.8a6 6 0 0 1 2-.1c1.3.1 2.3.5 3 1a3 3 0 0 1 1.2 2.4Z"/>
  <path fill="url(#g)" d="m55.8 21.8-2.9-.3c0-.2 0-.4-.2-.5 0-.2-.2-.3-.4-.4l-.5-.1H51c-.2.1-.3.3-.3.4 0 .2 0 .3.2.4l.6.3 1.8.5c.9.3 1.5.6 2 1 .4.5.6 1 .6 1.7 0 .6-.2 1-.6 1.5a3 3 0 0 1-1.4.9c-.6.2-1.4.2-2.2.1a5.6 5.6 0 0 1-3-1.1 3.3 3.3 0 0 1-1.3-2.3l3 .4.5.6c.2.2.5.3.9.3h.7c.2-.1.3-.2.3-.4s-.1-.3-.3-.4c-.1-.1-.4-.3-.7-.3l-1.6-.5c-.8-.2-1.5-.6-2-1-.4-.5-.6-1.1-.6-1.8 0-.6.2-1.1.5-1.5.3-.4.8-.6 1.4-.8a6 6 0 0 1 2-.1c1.3.1 2.3.5 3 1a3 3 0 0 1 1.2 2.4Z"/>
  <path fill="#fff" d="M18.2 11.4 42.5 14v2.5L18.2 14v-2.6Z"/>
  <path fill="url(#h)" d="M18.2 11.4 42.5 14v2.5L18.2 14v-2.6Z"/>
  <path fill="#fff" d="m13.2 24.3 19.3 2V29l-19.3-2v-2.6Z"/>
  <path fill="url(#i)" d="m13.2 24.3 19.3 2V29l-19.3-2v-2.6Z"/>
  <path fill="#fff" d="M46.4 6.7v7.6l-3.1-.3V6.4l3 .3Z"/>
  <path fill="url(#j)" d="M46.4 6.7v7.6l-3.1-.3V6.4l3 .3Z"/>
  <path fill="#fff" d="m44.8 4.8-6 5.4 1.7 1.8 4.3-4 4.3 4.9 1.7-1.5-6-6.6Z"/>
  <path fill="url(#k)" d="m44.8 4.8-6 5.4 1.7 1.8 4.3-4 4.3 4.9 1.7-1.5-6-6.6Z"/>
  <defs>
    <linearGradient id="a" x1="29.8" x2="26.2" y1="3.2" y2="37.1" gradientUnits="userSpaceOnUse">
      <stop stop-color="#6594E7"/>
      <stop offset=".2" stop-color="#A7C1F1"/>
      <stop offset=".3" stop-color="#CCE1F7"/>
      <stop offset=".5" stop-color="#7CC9EB"/>
      <stop offset=".6" stop-color="#58A1E5"/>
      <stop offset=".8" stop-color="#8664E7"/>
      <stop offset="1" stop-color="#471587"/>
    </linearGradient>
    <linearGradient id="b" x1="29.8" x2="26.2" y1="3.2" y2="37.1" gradientUnits="userSpaceOnUse">
      <stop stop-color="#6594E7"/>
      <stop offset=".2" stop-color="#A7C1F1"/>
      <stop offset=".3" stop-color="#CCE1F7"/>
      <stop offset=".5" stop-color="#7CC9EB"/>
      <stop offset=".6" stop-color="#58A1E5"/>
      <stop offset=".8" stop-color="#8664E7"/>
      <stop offset="1" stop-color="#471587"/>
    </linearGradient>
    <linearGradient id="c" x1="29.8" x2="26.2" y1="3.2" y2="37.1" gradientUnits="userSpaceOnUse">
      <stop stop-color="#6594E7"/>
      <stop offset=".2" stop-color="#A7C1F1"/>
      <stop offset=".3" stop-color="#CCE1F7"/>
      <stop offset=".5" stop-color="#7CC9EB"/>
      <stop offset=".6" stop-color="#58A1E5"/>
      <stop offset=".8" stop-color="#8664E7"/>
      <stop offset="1" stop-color="#471587"/>
    </linearGradient>
    <linearGradient id="d" x1="29.8" x2="26.2" y1="3.2" y2="37.1" gradientUnits="userSpaceOnUse">
      <stop stop-color="#6594E7"/>
      <stop offset=".2" stop-color="#A7C1F1"/>
      <stop offset=".3" stop-color="#CCE1F7"/>
      <stop offset=".5" stop-color="#7CC9EB"/>
      <stop offset=".6" stop-color="#58A1E5"/>
      <stop offset=".8" stop-color="#8664E7"/>
      <stop offset="1" stop-color="#471587"/>
    </linearGradient>
    <linearGradient id="e" x1="29.8" x2="26.2" y1="3.2" y2="37.1" gradientUnits="userSpaceOnUse">
      <stop stop-color="#6594E7"/>
      <stop offset=".2" stop-color="#A7C1F1"/>
      <stop offset=".3" stop-color="#CCE1F7"/>
      <stop offset=".5" stop-color="#7CC9EB"/>
      <stop offset=".6" stop-color="#58A1E5"/>
      <stop offset=".8" stop-color="#8664E7"/>
      <stop offset="1" stop-color="#471587"/>
    </linearGradient>
    <linearGradient id="f" x1="29.8" x2="26.2" y1="3.2" y2="37.1" gradientUnits="userSpaceOnUse">
      <stop stop-color="#6594E7"/>
      <stop offset=".2" stop-color="#A7C1F1"/>
      <stop offset=".3" stop-color="#CCE1F7"/>
      <stop offset=".5" stop-color="#7CC9EB"/>
      <stop offset=".6" stop-color="#58A1E5"/>
      <stop offset=".8" stop-color="#8664E7"/>
      <stop offset="1" stop-color="#471587"/>
    </linearGradient>
    <linearGradient id="g" x1="29.8" x2="26.2" y1="3.2" y2="37.1" gradientUnits="userSpaceOnUse">
      <stop stop-color="#6594E7"/>
      <stop offset=".2" stop-color="#A7C1F1"/>
      <stop offset=".3" stop-color="#CCE1F7"/>
      <stop offset=".5" stop-color="#7CC9EB"/>
      <stop offset=".6" stop-color="#58A1E5"/>
      <stop offset=".8" stop-color="#8664E7"/>
      <stop offset="1" stop-color="#471587"/>
    </linearGradient>
    <linearGradient id="h" x1="29.8" x2="26.2" y1="3.2" y2="37.1" gradientUnits="userSpaceOnUse">
      <stop stop-color="#6594E7"/>
      <stop offset=".2" stop-color="#A7C1F1"/>
      <stop offset=".3" stop-color="#CCE1F7"/>
      <stop offset=".5" stop-color="#7CC9EB"/>
      <stop offset=".6" stop-color="#58A1E5"/>
      <stop offset=".8" stop-color="#8664E7"/>
      <stop offset="1" stop-color="#471587"/>
    </linearGradient>
    <linearGradient id="i" x1="29.8" x2="26.2" y1="3.2" y2="37.1" gradientUnits="userSpaceOnUse">
      <stop stop-color="#6594E7"/>
      <stop offset=".2" stop-color="#A7C1F1"/>
      <stop offset=".3" stop-color="#CCE1F7"/>
      <stop offset=".5" stop-color="#7CC9EB"/>
      <stop offset=".6" stop-color="#58A1E5"/>
      <stop offset=".8" stop-color="#8664E7"/>
      <stop offset="1" stop-color="#471587"/>
    </linearGradient>
    <linearGradient id="j" x1="29.8" x2="26.2" y1="3.2" y2="37.1" gradientUnits="userSpaceOnUse">
      <stop stop-color="#6594E7"/>
      <stop offset=".2" stop-color="#A7C1F1"/>
      <stop offset=".3" stop-color="#CCE1F7"/>
      <stop offset=".5" stop-color="#7CC9EB"/>
      <stop offset=".6" stop-color="#58A1E5"/>
      <stop offset=".8" stop-color="#8664E7"/>
      <stop offset="1" stop-color="#471587"/>
    </linearGradient>
    <linearGradient id="k" x1="29.8" x2="26.2" y1="3.2" y2="37.1" gradientUnits="userSpaceOnUse">
      <stop stop-color="#6594E7"/>
      <stop offset=".2" stop-color="#A7C1F1"/>
      <stop offset=".3" stop-color="#CCE1F7"/>
      <stop offset=".5" stop-color="#7CC9EB"/>
      <stop offset=".6" stop-color="#58A1E5"/>
      <stop offset=".8" stop-color="#8664E7"/>
      <stop offset="1" stop-color="#471587"/>
    </linearGradient>
  </defs>
</svg>
